<?xml version="1.0" standalone="no"?>
<!DOCTYPE svg PUBLIC "-//W3C//DTD SVG 1.1//EN" "http://www.w3.org/Graphics/SVG/1.1/DTD/svg11.dtd" >
<svg xmlns="http://www.w3.org/2000/svg" xmlns:xlink="http://www.w3.org/1999/xlink" version="1.1">
<metadata>
Created by FontForge 20150824 at Fri Jun 17 14:52:45 2016
 By Everything Fonts
Copyright (c) 2013 by Gumundur U'lfarsson &#38; Or Type. All rights reserved.
</metadata>
<defs>
<font id="L10-Regular" horiz-adv-x="600" >
  <font-face 
    font-family="L10"
    font-weight="400"
    font-stretch="normal"
    units-per-em="1000"
    panose-1="0 0 5 0 0 0 0 0 0 0"
    ascent="800"
    descent="-200"
    x-height="503"
    cap-height="700"
    bbox="-50 -251 1118 917"
    underline-thickness="50"
    underline-position="-100"
    stemh="93"
    stemv="99"
    unicode-range="U+0020-FB04"
  />
<missing-glyph horiz-adv-x="500" 
d="M0 0v700h500v-700h-500zM250 395l170 255h-340zM280 350l170 -255v510zM80 50h340l-170 255zM50 605v-510l170 255z" />
    <glyph glyph-name="f_f" unicode="ff" horiz-adv-x="586" 
d="M567 671h-38c-32 0 -59 -16 -59 -79v-89h86v-88h-86v-415h-95v415h-181v-415h-95v415h-68v88h68v93c0 106 59 163 135 163h57v-88h-38c-32 0 -59 -16 -59 -79v-89h181v93c0 106 59 163 135 163h57v-88z" />
    <glyph glyph-name="f_f_i" unicode="ffi" horiz-adv-x="832" 
d="M745 503v-502h-95v414h-180v-415h-95v415h-181v-415h-95v415h-68v88h68v93c0 106 59 163 135 163h57v-88h-38c-32 0 -59 -16 -59 -79v-89h181v93c0 106 59 163 135 163h57v-88h-38c-32 0 -59 -16 -59 -79v-89h275zM747 759v-104h-99v104h99z" />
    <glyph glyph-name="f_f_l" unicode="ffl" horiz-adv-x="825" 
d="M375 503v93c0 106 59 163 135 163h57v-88h-38c-32 0 -59 -16 -59 -79v-89h86v-88h-86v-415h-95v415h-181v-415h-95v415h-68v88h68v93c0 106 59 163 135 163h57v-88h-38c-32 0 -59 -16 -59 -79v-89h181zM740 759v-759h-95v759h95z" />
    <glyph glyph-name="fi" unicode="fi" horiz-adv-x="557" 
d="M470 503v-503h-95v415h-181v-415h-95v415h-68v88h68v93c0 106 59 163 135 163h57v-88h-38c-32 0 -59 -16 -59 -79v-89h276zM472 759v-104h-99v104h99z" />
    <glyph glyph-name="fl" unicode="fl" horiz-adv-x="540" 
d="M291 671h-38c-32 0 -59 -16 -59 -79v-89h86v-88h-86v-415h-95v415h-68v88h68v93c0 106 59 163 135 163h57v-88zM455 0h-95v759h95v-759z" />
    <glyph glyph-name=".notdef" horiz-adv-x="500" 
d="M0 0v700h500v-700h-500zM250 395l170 255h-340zM280 350l170 -255v510zM80 50h340l-170 255zM50 605v-510l170 255z" />
    <glyph glyph-name="A" unicode="A" horiz-adv-x="555" 
d="M406 113h-257l-35 -113h-101l220 700h89l220 -700h-101zM378 204l-100 327l-101 -327h201z" />
    <glyph glyph-name="Aacute" unicode="&#xc1;" horiz-adv-x="555" 
d="M309 760h-87l88 131h130zM406 113h-257l-35 -113h-101l220 700h89l220 -700h-101zM378 204l-100 327l-101 -327h201z" />
    <glyph glyph-name="Abreve" unicode="&#x102;" horiz-adv-x="555" 
d="M278 762c-84 0 -134 52 -134 138h72c0 -57 30 -72 62 -72c37 0 62 15 62 72h72c0 -86 -44 -138 -134 -138zM406 113h-257l-35 -113h-101l220 700h89l220 -700h-101zM378 204l-100 327l-101 -327h201z" />
    <glyph glyph-name="Acaron" unicode="&#x1cd;" horiz-adv-x="555" 
d="M249 759l-116 131h98l47 -57l47 57h98l-116 -131h-58zM406 113h-257l-35 -113h-101l220 700h89l220 -700h-101zM378 204l-100 327l-101 -327h201z" />
    <glyph glyph-name="Acircumflex" unicode="&#xc2;" horiz-adv-x="555" 
d="M231 752h-98l116 131h58l116 -131h-98l-47 57zM406 113h-257l-35 -113h-101l220 700h89l220 -700h-101zM378 204l-100 327l-101 -327h201z" />
    <glyph glyph-name="Adieresis" unicode="&#xc4;" horiz-adv-x="555" 
d="M223 782h-105v105h105v-105zM437 782h-105v105h105v-105zM406 113h-257l-35 -113h-101l220 700h89l220 -700h-101zM378 204l-100 327l-101 -327h201z" />
    <glyph glyph-name="Agrave" unicode="&#xc0;" horiz-adv-x="555" 
d="M250 760l-131 131h130l88 -131h-87zM406 113h-257l-35 -113h-101l220 700h89l220 -700h-101zM378 204l-100 327l-101 -327h201z" />
    <glyph glyph-name="Amacron" unicode="&#x100;" horiz-adv-x="555" 
d="M442 780h-329v69h329v-69zM406 113h-257l-35 -113h-101l220 700h89l220 -700h-101zM378 204l-100 327l-101 -327h201z" />
    <glyph glyph-name="Aogonek" unicode="&#x104;" horiz-adv-x="555" 
d="M460 -90c8 -29 43 -32 87 -13v-73c-55 -24 -121 -21 -151 32c-26 46 -7 106 59 144h-14l-35 113h-257l-35 -113h-101l220 700h89l220 -700c-68 -33 -89 -63 -82 -90zM378 204l-100 327l-101 -327h201z" />
    <glyph glyph-name="Aring" unicode="&#xc5;" horiz-adv-x="555" 
d="M277 743c-49 0 -87 38 -87 87s38 87 87 87c50 0 88 -38 88 -87s-38 -87 -88 -87zM277 872c-22 0 -42 -20 -42 -42c0 -24 20 -43 42 -43s42 19 42 43c0 22 -20 42 -42 42zM406 113h-257l-35 -113h-101l220 700h89l220 -700h-101zM378 204l-100 327l-101 -327h201z" />
    <glyph glyph-name="Atilde" unicode="&#xc3;" horiz-adv-x="555" 
d="M197 802c-32 -1 -53 -16 -69 -37l-33 43c14 29 43 67 94 69c66 2 101 -43 162 -41c34 1 49 16 63 36l37 -35c-15 -37 -51 -70 -100 -71c-65 -3 -96 38 -154 36zM406 113h-257l-35 -113h-101l220 700h89l220 -700h-101zM378 204l-100 327l-101 -327h201z" />
    <glyph glyph-name="AE" unicode="&#xc6;" horiz-adv-x="740" 
d="M448 607v-196h223v-92h-223v-227h240v-92h-339v176h-175l-60 -176h-101l240 700h435v-93h-240zM349 265v342h-27l-117 -342h144z" />
    <glyph glyph-name="B" unicode="B" horiz-adv-x="612" 
d="M91 700h225c166 0 211 -120 211 -179c0 -72 -32 -128 -75 -155c56 -26 105 -85 105 -172s-63 -194 -221 -194h-245v700zM190 606v-202h116c94 0 116 54 116 101s-22 101 -116 101h-116zM190 316v-222h132c94 0 130 52 130 111s-36 111 -130 111h-132z" />
    <glyph glyph-name="C" unicode="C" horiz-adv-x="680" 
d="M383 714c132 0 215 -74 266 -142l-67 -65c-34 49 -93 112 -197 112c-139 0 -229 -111 -229 -269s91 -269 227 -269c106 0 165 63 199 112l67 -65c-51 -68 -135 -142 -270 -142c-184 0 -325 153 -325 365c0 211 140 363 329 363z" />
    <glyph glyph-name="Cacute" unicode="&#x106;" horiz-adv-x="680" 
d="M408 760h-87l88 131h130zM383 714c132 0 215 -74 266 -142l-67 -65c-34 49 -93 112 -197 112c-139 0 -229 -111 -229 -269s91 -269 227 -269c106 0 165 63 199 112l67 -65c-51 -68 -135 -142 -270 -142c-184 0 -325 153 -325 365c0 211 140 363 329 363z" />
    <glyph glyph-name="Ccaron" unicode="&#x10c;" horiz-adv-x="680" 
d="M406 759h-58l-116 131h98l47 -57l47 57h98zM383 714c132 0 215 -74 266 -142l-67 -65c-34 49 -93 112 -197 112c-139 0 -229 -111 -229 -269s91 -269 227 -269c106 0 165 63 199 112l67 -65c-51 -68 -135 -142 -270 -142c-184 0 -325 153 -325 365c0 211 140 363 329 363
z" />
    <glyph glyph-name="Ccedilla" unicode="&#xc7;" horiz-adv-x="680" 
d="M383 714c132 0 215 -74 266 -142l-67 -65c-34 49 -93 112 -197 112c-139 0 -229 -111 -229 -269s91 -269 227 -269c106 0 165 63 199 112l67 -65c-51 -68 -135 -142 -270 -142c-184 0 -325 153 -325 365c0 211 140 363 329 363zM346 -227l-104 44l108 116h68z" />
    <glyph glyph-name="Ccircumflex" unicode="&#x108;" horiz-adv-x="680" 
d="M522 752h-98l-47 57l-47 -57h-98l116 131h58zM383 714c132 0 215 -74 266 -142l-67 -65c-34 49 -93 112 -197 112c-139 0 -229 -111 -229 -269s91 -269 227 -269c106 0 165 63 199 112l67 -65c-51 -68 -135 -142 -270 -142c-184 0 -325 153 -325 365
c0 211 140 363 329 363z" />
    <glyph glyph-name="Cdotaccent" unicode="&#x10a;" horiz-adv-x="680" 
d="M377 875c32 0 53 -21 53 -54c0 -31 -21 -52 -53 -52c-33 0 -54 21 -54 52c0 33 21 54 54 54zM383 714c132 0 215 -74 266 -142l-67 -65c-34 49 -93 112 -197 112c-139 0 -229 -111 -229 -269s91 -269 227 -269c106 0 165 63 199 112l67 -65c-51 -68 -135 -142 -270 -142
c-184 0 -325 153 -325 365c0 211 140 363 329 363z" />
    <glyph glyph-name="D" unicode="D" horiz-adv-x="681" 
d="M91 700h209c186 0 327 -149 327 -350c0 -205 -141 -350 -327 -350h-209v700zM190 95h110c133 0 225 103 225 255c0 148 -92 255 -225 255h-110v-510z" />
    <glyph glyph-name="Eth" unicode="&#xd0;" horiz-adv-x="749" 
d="M142 700h199c214 -7 344 -141 344 -351c0 -213 -129 -349 -351 -349h-192v296h-97v91h97v313zM245 94h89c147 0 246 84 246 255s-97 255 -240 257h-95v-219h166v-91h-166v-202z" />
    <glyph glyph-name="Dcaron" unicode="&#x10e;" horiz-adv-x="681" 
d="M315 737h-58l-116 131h98l47 -57l47 57h98zM91 700h209c186 0 327 -149 327 -350c0 -205 -141 -350 -327 -350h-209v700zM190 95h110c133 0 225 103 225 255c0 148 -92 255 -225 255h-110v-510z" />
    <glyph glyph-name="Dcroat" unicode="&#x110;" horiz-adv-x="749" 
d="M142 700h199c214 -7 344 -141 344 -351c0 -213 -129 -349 -351 -349h-192v296h-97v91h97v313zM245 94h89c147 0 246 84 246 255s-97 255 -240 257h-95v-219h166v-91h-166v-202z" />
    <glyph glyph-name="E" unicode="E" horiz-adv-x="482" 
d="M430 607h-240v-196h223v-92h-223v-227h240v-92h-339v700h339v-93z" />
    <glyph glyph-name="Eacute" unicode="&#xc9;" horiz-adv-x="482" 
d="M286 760h-87l88 131h130zM430 607h-240v-196h223v-92h-223v-227h240v-92h-339v700h339v-93z" />
    <glyph glyph-name="Ebreve" unicode="&#x114;" horiz-adv-x="482" 
d="M317 900h72c0 -86 -44 -138 -134 -138c-84 0 -134 52 -134 138h72c0 -57 30 -72 62 -72c37 0 62 15 62 72zM430 607h-240v-196h223v-92h-223v-227h240v-92h-339v700h339v-93z" />
    <glyph glyph-name="Ecaron" unicode="&#x11a;" horiz-adv-x="482" 
d="M284 759h-58l-116 131h98l47 -57l47 57h98zM430 607h-240v-196h223v-92h-223v-227h240v-92h-339v700h339v-93z" />
    <glyph glyph-name="Ecircumflex" unicode="&#xca;" horiz-adv-x="482" 
d="M400 752h-98l-47 57l-47 -57h-98l116 131h58zM430 607h-240v-196h223v-92h-223v-227h240v-92h-339v700h339v-93z" />
    <glyph glyph-name="Edieresis" unicode="&#xcb;" horiz-adv-x="482" 
d="M200 782h-105v105h105v-105zM414 782h-105v105h105v-105zM430 607h-240v-196h223v-92h-223v-227h240v-92h-339v700h339v-93z" />
    <glyph glyph-name="Edotaccent" unicode="&#x116;" horiz-adv-x="482" 
d="M255 875c32 0 53 -21 53 -54c0 -31 -21 -52 -53 -52c-33 0 -54 21 -54 52c0 33 21 54 54 54zM430 607h-240v-196h223v-92h-223v-227h240v-92h-339v700h339v-93z" />
    <glyph glyph-name="Egrave" unicode="&#xc8;" horiz-adv-x="482" 
d="M314 760h-87l-131 131h130zM430 607h-240v-196h223v-92h-223v-227h240v-92h-339v700h339v-93z" />
    <glyph glyph-name="Emacron" unicode="&#x112;" horiz-adv-x="482" 
d="M419 780h-329v69h329v-69zM430 607h-240v-196h223v-92h-223v-227h240v-92h-339v700h339v-93z" />
    <glyph glyph-name="Eogonek" unicode="&#x118;" horiz-adv-x="482" 
d="M348 -90c8 -29 43 -32 87 -13v-73c-55 -24 -121 -21 -151 32c-26 46 -7 106 59 144h-252v700h339v-93h-240v-196h223v-92h-223v-227h240v-92c-68 -33 -89 -63 -82 -90z" />
    <glyph glyph-name="F" unicode="F" horiz-adv-x="456" 
d="M428 607h-238v-195h221v-92h-221v-320h-99v700h337v-93z" />
    <glyph glyph-name="G" unicode="G" horiz-adv-x="742" 
d="M383 714c132 0 215 -75 266 -143l-67 -64c-32 46 -91 112 -196 112c-141 0 -230 -112 -230 -269c0 -158 89 -269 228 -269c125 0 192 89 195 200h-228v86h316v-367h-82v83c-34 -59 -115 -97 -207 -97c-184 0 -324 153 -324 365c0 211 140 363 329 363z" />
    <glyph glyph-name="Gbreve" unicode="&#x11e;" horiz-adv-x="742" 
d="M428 900h72c0 -86 -44 -138 -134 -138c-84 0 -134 52 -134 138h72c0 -57 30 -72 62 -72c37 0 62 15 62 72zM383 714c132 0 215 -75 266 -143l-67 -64c-32 46 -91 112 -196 112c-141 0 -230 -112 -230 -269c0 -158 89 -269 228 -269c125 0 192 89 195 200h-228v86h316
v-367h-82v83c-34 -59 -115 -97 -207 -97c-184 0 -324 153 -324 365c0 211 140 363 329 363z" />
    <glyph glyph-name="Gcircumflex" unicode="&#x11c;" horiz-adv-x="742" 
d="M511 752h-98l-47 57l-47 -57h-98l116 131h58zM383 714c132 0 215 -75 266 -143l-67 -64c-32 46 -91 112 -196 112c-141 0 -230 -112 -230 -269c0 -158 89 -269 228 -269c125 0 192 89 195 200h-228v86h316v-367h-82v83c-34 -59 -115 -97 -207 -97
c-184 0 -324 153 -324 365c0 211 140 363 329 363z" />
    <glyph glyph-name="Gcommaaccent" unicode="&#x122;" horiz-adv-x="752" 
d="M383 714c132 0 215 -75 266 -143l-67 -64c-32 46 -91 112 -196 112c-141 0 -230 -112 -230 -269c0 -158 89 -269 228 -269c125 0 192 89 195 200h-228v86h316v-367h-82v83c-34 -59 -115 -97 -207 -97c-184 0 -324 153 -324 365c0 211 140 363 329 363zM449 -58v-97
c0 -45 -22 -69 -74 -94l-27 33c29 11 51 26 51 48v13h-54v97h104z" />
    <glyph glyph-name="Gdotaccent" unicode="&#x120;" horiz-adv-x="742" 
d="M366 875c32 0 53 -21 53 -54c0 -31 -21 -52 -53 -52c-33 0 -54 21 -54 52c0 33 21 54 54 54zM383 714c132 0 215 -75 266 -143l-67 -64c-32 46 -91 112 -196 112c-141 0 -230 -112 -230 -269c0 -158 89 -269 228 -269c125 0 192 89 195 200h-228v86h316v-367h-82v83
c-34 -59 -115 -97 -207 -97c-184 0 -324 153 -324 365c0 211 140 363 329 363z" />
    <glyph glyph-name="H" unicode="H" horiz-adv-x="672" 
d="M581 0h-99v309h-292v-309h-99v700h99v-298h292v298h99v-700z" />
    <glyph glyph-name="Hbar" unicode="&#x126;" horiz-adv-x="662" 
d="M627 514h-49v-514h-99v309h-292v-309h-98v514h-54v81h54v105h98v-105h292v105h99v-105h49v-81zM479 514h-292v-112h292v112z" />
    <glyph glyph-name="Hcircumflex" unicode="&#x124;" horiz-adv-x="672" 
d="M493 729h-98l-47 57l-47 -57h-98l116 131h58zM581 0h-99v309h-292v-309h-99v700h99v-298h292v298h99v-700z" />
    <glyph glyph-name="I" unicode="I" horiz-adv-x="485" 
d="M420 609h-128v-518h128v-91h-355v91h128v518h-128v91h355v-91z" />
    <glyph glyph-name="IJ" unicode="&#x132;" horiz-adv-x="838" 
d="M420 609h-128v-518h128v-91h-355v91h128v518h-128v91h355v-91zM753 700v-531c0 -127 -123 -186 -193 -186v94c48 2 94 37 94 120v503h99z" />
    <glyph glyph-name="Iacute" unicode="&#xcd;" horiz-adv-x="485" 
d="M274 760h-87l88 131h130zM420 609h-128v-518h128v-91h-355v91h128v518h-128v91h355v-91z" />
    <glyph glyph-name="Icaron" unicode="&#x1cf;" horiz-adv-x="485" 
d="M272 759h-58l-116 131h98l47 -57l47 57h98zM420 609h-128v-518h128v-91h-355v91h128v518h-128v91h355v-91z" />
    <glyph glyph-name="Icircumflex" unicode="&#xce;" horiz-adv-x="485" 
d="M388 752h-98l-47 57l-47 -57h-98l116 131h58zM420 609h-128v-518h128v-91h-355v91h128v518h-128v91h355v-91z" />
    <glyph glyph-name="Idieresis" unicode="&#xcf;" horiz-adv-x="485" 
d="M188 782h-105v105h105v-105zM402 782h-105v105h105v-105zM420 609h-128v-518h128v-91h-355v91h128v518h-128v91h355v-91z" />
    <glyph glyph-name="Idotaccent" unicode="&#x130;" horiz-adv-x="485" 
d="M243 875c32 0 53 -21 53 -54c0 -31 -21 -52 -53 -52c-33 0 -54 21 -54 52c0 33 21 54 54 54zM420 609h-128v-518h128v-91h-355v91h128v518h-128v91h355v-91z" />
    <glyph glyph-name="Igrave" unicode="&#xcc;" horiz-adv-x="485" 
d="M302 760h-87l-131 131h130zM420 609h-128v-518h128v-91h-355v91h128v518h-128v91h355v-91z" />
    <glyph glyph-name="Imacron" unicode="&#x12a;" horiz-adv-x="485" 
d="M407 780h-329v69h329v-69zM420 609h-128v-518h128v-91h-355v91h128v518h-128v91h355v-91z" />
    <glyph glyph-name="Iogonek" unicode="&#x12e;" horiz-adv-x="485" 
d="M338 -90c8 -29 43 -32 87 -13v-73c-55 -24 -121 -21 -151 32c-26 46 -7 106 59 144h-268v91h128v518h-128v91h355v-91h-128v-518h128v-91c-68 -33 -89 -63 -82 -90z" />
    <glyph glyph-name="Itilde" unicode="&#x128;" horiz-adv-x="485" 
d="M154 877c66 2 101 -43 162 -41c34 1 49 16 63 36l37 -35c-15 -37 -51 -70 -100 -71c-65 -3 -96 38 -154 36c-32 -1 -53 -16 -69 -37l-33 43c14 29 43 67 94 69zM420 609h-128v-518h128v-91h-355v91h128v518h-128v91h355v-91z" />
    <glyph glyph-name="J" unicode="J" horiz-adv-x="353" 
d="M268 700v-531c0 -127 -123 -186 -193 -186v94c48 2 94 37 94 120v503h99z" />
    <glyph glyph-name="Jcircumflex" unicode="&#x134;" horiz-adv-x="353" 
d="M373 729h-98l-47 57l-47 -57h-98l116 131h58zM268 700v-531c0 -127 -123 -186 -193 -186v94c48 2 94 37 94 120v503h99z" />
    <glyph glyph-name="K" unicode="K" horiz-adv-x="584" 
d="M463 0l-273 324v-324h-99v700h99v-306l253 306h120l-290 -339l311 -361h-121z" />
    <glyph glyph-name="Kcommaaccent" unicode="&#x136;" horiz-adv-x="597" 
d="M584 0h-121l-273 324v-324h-99v700h99v-306l253 306h120l-290 -339zM265 -50h104v-97c0 -45 -22 -69 -74 -94l-27 33c29 11 51 26 51 48v13h-54v97z" />
    <glyph glyph-name="L" unicode="L" horiz-adv-x="408" 
d="M190 93h193v-93h-292v700h99v-607z" />
    <glyph glyph-name="Lacute" unicode="&#x139;" horiz-adv-x="408" 
d="M193 760h-87l88 131h130zM190 93h193v-93h-292v700h99v-607z" />
    <glyph glyph-name="Lcaron" unicode="&#x13d;" horiz-adv-x="408" 
d="M190 93h193v-93h-292v700h99v-607zM364 700v-107c0 -55 -20 -90 -72 -119l-27 33c29 15 49 43 49 73v13h-54v107h104z" />
    <glyph glyph-name="Lcommaaccent" unicode="&#x13b;" horiz-adv-x="408" 
d="M190 93h193v-93h-292v700h99v-607zM300 -50v-97c0 -45 -22 -69 -74 -94l-27 33c29 11 51 26 51 48v13h-54v97h104z" />
    <glyph glyph-name="Ldot" unicode="&#x13f;" horiz-adv-x="408" 
d="M190 93h193v-93h-292v700h99v-607zM344 345c28 0 49 -21 49 -49s-21 -49 -49 -49s-49 21 -49 49s21 49 49 49z" />
    <glyph glyph-name="Lslash" unicode="&#x141;" horiz-adv-x="402" 
d="M367 93v-93h-292v210l-34 -16l-36 80l70 33v393h99v-346l113 53l36 -80l-149 -70v-164h193z" />
    <glyph glyph-name="M" unicode="M" horiz-adv-x="810" 
d="M719 0h-99v561l-165 -362h-101l-164 362v-561h-99v700h138l175 -392l187 392h128v-700z" />
    <glyph glyph-name="N" unicode="N" horiz-adv-x="704" 
d="M613 0h-107l-316 531v-531h-99v700h104l319 -527v527h99v-700z" />
    <glyph glyph-name="Nacute" unicode="&#x143;" horiz-adv-x="704" 
d="M383 760h-87l88 131h130zM613 0h-107l-316 531v-531h-99v700h104l319 -527v527h99v-700z" />
    <glyph glyph-name="Ncaron" unicode="&#x147;" horiz-adv-x="704" 
d="M381 759h-58l-116 131h98l47 -57l47 57h98zM613 0h-107l-316 531v-531h-99v700h104l319 -527v527h99v-700z" />
    <glyph glyph-name="Ncommaaccent" unicode="&#x145;" horiz-adv-x="724" 
d="M613 0h-107l-316 531v-531h-99v700h104l319 -527v527h99v-700zM419 -50v-97c0 -45 -22 -69 -74 -94l-27 33c29 11 51 26 51 48v13h-54v97h104z" />
    <glyph glyph-name="Ntilde" unicode="&#xd1;" horiz-adv-x="704" 
d="M263 877c66 2 101 -43 162 -41c34 1 49 16 63 36l37 -35c-15 -37 -51 -70 -100 -71c-65 -3 -96 38 -154 36c-32 -1 -53 -16 -69 -37l-33 43c14 29 43 67 94 69zM613 0h-107l-316 531v-531h-99v700h104l319 -527v527h99v-700z" />
    <glyph glyph-name="O" unicode="O" horiz-adv-x="762" 
d="M381 714c186 0 327 -153 327 -364s-141 -364 -327 -364s-327 153 -327 364s141 364 327 364zM381 619c-133 0 -225 -111 -225 -269s92 -269 225 -269s225 111 225 269s-92 269 -225 269z" />
    <glyph glyph-name="Oacute" unicode="&#xd3;" horiz-adv-x="762" 
d="M412 760h-87l88 131h130zM381 714c186 0 327 -153 327 -364s-141 -364 -327 -364s-327 153 -327 364s141 364 327 364zM381 619c-133 0 -225 -111 -225 -269s92 -269 225 -269s225 111 225 269s-92 269 -225 269z" />
    <glyph glyph-name="Obreve" unicode="&#x14e;" horiz-adv-x="762" 
d="M443 900h72c0 -86 -44 -138 -134 -138c-84 0 -134 52 -134 138h72c0 -57 30 -72 62 -72c37 0 62 15 62 72zM381 714c186 0 327 -153 327 -364s-141 -364 -327 -364s-327 153 -327 364s141 364 327 364zM381 619c-133 0 -225 -111 -225 -269s92 -269 225 -269
s225 111 225 269s-92 269 -225 269z" />
    <glyph glyph-name="Ocaron" unicode="&#x1d1;" horiz-adv-x="762" 
d="M410 759h-58l-116 131h98l47 -57l47 57h98zM381 714c186 0 327 -153 327 -364s-141 -364 -327 -364s-327 153 -327 364s141 364 327 364zM381 619c-133 0 -225 -111 -225 -269s92 -269 225 -269s225 111 225 269s-92 269 -225 269z" />
    <glyph glyph-name="Ocircumflex" unicode="&#xd4;" horiz-adv-x="762" 
d="M526 752h-98l-47 57l-47 -57h-98l116 131h58zM381 714c186 0 327 -153 327 -364s-141 -364 -327 -364s-327 153 -327 364s141 364 327 364zM381 619c-133 0 -225 -111 -225 -269s92 -269 225 -269s225 111 225 269s-92 269 -225 269z" />
    <glyph glyph-name="Odieresis" unicode="&#xd6;" horiz-adv-x="762" 
d="M326 782h-105v105h105v-105zM540 782h-105v105h105v-105zM381 714c186 0 327 -153 327 -364s-141 -364 -327 -364s-327 153 -327 364s141 364 327 364zM381 619c-133 0 -225 -111 -225 -269s92 -269 225 -269s225 111 225 269s-92 269 -225 269z" />
    <glyph glyph-name="Ograve" unicode="&#xd2;" horiz-adv-x="762" 
d="M440 760h-87l-131 131h130zM381 714c186 0 327 -153 327 -364s-141 -364 -327 -364s-327 153 -327 364s141 364 327 364zM381 619c-133 0 -225 -111 -225 -269s92 -269 225 -269s225 111 225 269s-92 269 -225 269z" />
    <glyph glyph-name="Ohungarumlaut" unicode="&#x150;" horiz-adv-x="762" 
d="M295 760h-87l88 131h130zM526 760h-87l88 131h130zM381 714c186 0 327 -153 327 -364s-141 -364 -327 -364s-327 153 -327 364s141 364 327 364zM381 619c-133 0 -225 -111 -225 -269s92 -269 225 -269s225 111 225 269s-92 269 -225 269z" />
    <glyph glyph-name="Omacron" unicode="&#x14c;" horiz-adv-x="762" 
d="M545 780h-329v69h329v-69zM381 714c186 0 327 -153 327 -364s-141 -364 -327 -364s-327 153 -327 364s141 364 327 364zM381 619c-133 0 -225 -111 -225 -269s92 -269 225 -269s225 111 225 269s-92 269 -225 269z" />
    <glyph glyph-name="Oslash" unicode="&#xd8;" horiz-adv-x="818" 
d="M710 729l-90 -124c55 -64 88 -153 88 -255c0 -211 -141 -364 -327 -364c-64 0 -123 18 -173 51l-75 -103l-63 46l79 108c-59 65 -95 156 -95 262c0 211 141 364 327 364c68 0 130 -20 181 -57l86 118zM156 350c0 -72 19 -134 52 -180l298 409c-35 26 -77 40 -125 40
c-133 0 -225 -111 -225 -269zM606 350c0 68 -17 126 -47 172l-295 -407c33 -22 73 -34 117 -34c133 0 225 111 225 269z" />
    <glyph glyph-name="Otilde" unicode="&#xd5;" horiz-adv-x="762" 
d="M292 877c66 2 101 -43 162 -41c34 1 49 16 63 36l37 -35c-15 -37 -51 -70 -100 -71c-65 -3 -96 38 -154 36c-32 -1 -53 -16 -69 -37l-33 43c14 29 43 67 94 69zM381 714c186 0 327 -153 327 -364s-141 -364 -327 -364s-327 153 -327 364s141 364 327 364zM381 619
c-133 0 -225 -111 -225 -269s92 -269 225 -269s225 111 225 269s-92 269 -225 269z" />
    <glyph glyph-name="OE" unicode="&#x152;" horiz-adv-x="944" 
d="M652 607v-196h223v-92h-223v-227h240v-92h-339v22c-46 -25 -100 -39 -159 -39c-199 0 -340 165 -340 367c0 203 140 367 340 367c59 0 113 -14 159 -40v23h339v-93h-240zM393 78c70 0 122 22 160 59v427c-38 36 -91 58 -160 58c-163 0 -236 -127 -236 -272
c0 -143 73 -272 236 -272z" />
    <glyph glyph-name="P" unicode="P" horiz-adv-x="568" 
d="M91 700h216c146 0 224 -96 224 -210s-78 -211 -224 -211h-117v-279h-99v700zM190 607v-235h101c102 0 140 52 140 118s-38 117 -140 117h-101z" />
    <glyph glyph-name="Thorn" unicode="&#xde;" horiz-adv-x="584" 
d="M200 576h106c183 0 235 -126 235 -210s-52 -211 -235 -211h-106v-155h-99v700h99v-124zM200 248h106c116 0 135 72 135 118s-19 117 -135 117h-106v-235z" />
    <glyph glyph-name="Q" unicode="Q" horiz-adv-x="762" 
d="M708 350c0 -121 -46 -223 -121 -288l75 -92l-70 -57l-81 100c-40 -17 -84 -27 -130 -27c-186 0 -327 153 -327 364s141 364 327 364s327 -153 327 -364zM381 81c23 0 46 3 66 10l-59 73l70 57l68 -83c50 47 80 122 80 212c0 158 -92 269 -225 269s-225 -111 -225 -269
s92 -269 225 -269z" />
    <glyph glyph-name="R" unicode="R" horiz-adv-x="584" 
d="M475 0l-234 279h-51v-279h-99v700h216c146 0 224 -96 224 -210c0 -101 -61 -189 -177 -207l241 -283h-120zM190 372h101c102 0 140 52 140 118s-38 117 -140 117h-101v-235z" />
    <glyph glyph-name="Racute" unicode="&#x154;" horiz-adv-x="584" 
d="M311 760h-87l88 131h130zM475 0l-234 279h-51v-279h-99v700h216c146 0 224 -96 224 -210c0 -101 -61 -189 -177 -207l241 -283h-120zM190 372h101c102 0 140 52 140 118s-38 117 -140 117h-101v-235z" />
    <glyph glyph-name="Rcaron" unicode="&#x158;" horiz-adv-x="584" 
d="M251 759l-116 131h98l47 -57l47 57h98l-116 -131h-58zM475 0l-234 279h-51v-279h-99v700h216c146 0 224 -96 224 -210c0 -101 -61 -189 -177 -207l241 -283h-120zM190 372h101c102 0 140 52 140 118s-38 117 -140 117h-101v-235z" />
    <glyph glyph-name="Rcommaaccent" unicode="&#x156;" horiz-adv-x="604" 
d="M595 0h-120l-234 279h-51v-279h-99v700h216c146 0 224 -96 224 -210c0 -101 -61 -189 -177 -207zM190 372h101c102 0 140 52 140 118s-38 117 -140 117h-101v-235zM265 -50h104v-97c0 -45 -22 -69 -74 -94l-27 33c29 11 51 26 51 48v13h-54v97z" />
    <glyph glyph-name="S" unicode="S" horiz-adv-x="559" 
d="M284 714c120 0 189 -75 232 -131l-67 -63c-33 43 -82 99 -163 99c-68 0 -105 -40 -105 -83c0 -44 37 -71 84 -95l105 -54c90 -46 147 -111 147 -200c0 -105 -79 -201 -220 -201c-156 0 -250 118 -266 154l67 64c22 -39 103 -123 201 -123c79 0 116 53 116 105
c0 54 -42 86 -110 122l-109 58c-67 37 -117 87 -117 168c0 106 85 180 205 180z" />
    <glyph glyph-name="Sacute" unicode="&#x15a;" horiz-adv-x="559" 
d="M328 760h-87l88 131h130zM284 714c120 0 189 -75 232 -131l-67 -63c-33 43 -82 99 -163 99c-68 0 -105 -40 -105 -83c0 -44 37 -71 84 -95l105 -54c90 -46 147 -111 147 -200c0 -105 -79 -201 -220 -201c-156 0 -250 118 -266 154l67 64c22 -39 103 -123 201 -123
c79 0 116 53 116 105c0 54 -42 86 -110 122l-109 58c-67 37 -117 87 -117 168c0 106 85 180 205 180z" />
    <glyph glyph-name="Scaron" unicode="&#x160;" horiz-adv-x="559" 
d="M326 759h-58l-116 131h98l47 -57l47 57h98zM284 714c120 0 189 -75 232 -131l-67 -63c-33 43 -82 99 -163 99c-68 0 -105 -40 -105 -83c0 -44 37 -71 84 -95l105 -54c90 -46 147 -111 147 -200c0 -105 -79 -201 -220 -201c-156 0 -250 118 -266 154l67 64
c22 -39 103 -123 201 -123c79 0 116 53 116 105c0 54 -42 86 -110 122l-109 58c-67 37 -117 87 -117 168c0 106 85 180 205 180z" />
    <glyph glyph-name="Scedilla" unicode="&#x15e;" horiz-adv-x="559" 
d="M284 714c120 0 189 -75 232 -131l-67 -63c-33 43 -82 99 -163 99c-68 0 -105 -40 -105 -83c0 -44 37 -71 84 -95l105 -54c90 -46 147 -111 147 -200c0 -105 -79 -201 -220 -201c-156 0 -250 118 -266 154l67 64c22 -39 103 -123 201 -123c79 0 116 53 116 105
c0 54 -42 86 -110 122l-109 58c-67 37 -117 87 -117 168c0 106 85 180 205 180zM276 -227l-104 44l108 116h68z" />
    <glyph glyph-name="Scircumflex" unicode="&#x15c;" horiz-adv-x="559" 
d="M442 752h-98l-47 57l-47 -57h-98l116 131h58zM284 714c120 0 189 -75 232 -131l-67 -63c-33 43 -82 99 -163 99c-68 0 -105 -40 -105 -83c0 -44 37 -71 84 -95l105 -54c90 -46 147 -111 147 -200c0 -105 -79 -201 -220 -201c-156 0 -250 118 -266 154l67 64
c22 -39 103 -123 201 -123c79 0 116 53 116 105c0 54 -42 86 -110 122l-109 58c-67 37 -117 87 -117 168c0 106 85 180 205 180z" />
    <glyph glyph-name="Scommaaccent" unicode="&#x218;" 
d="M284 714c120 0 189 -75 232 -131l-67 -63c-33 43 -82 99 -163 99c-68 0 -105 -40 -105 -83c0 -44 37 -71 84 -95l105 -54c90 -46 147 -111 147 -200c0 -105 -79 -201 -220 -201c-156 0 -250 118 -266 154l67 64c22 -39 103 -123 201 -123c79 0 116 53 116 105
c0 54 -42 86 -110 122l-109 58c-67 37 -117 87 -117 168c0 106 85 180 205 180zM365 -58v-97c0 -45 -22 -69 -74 -94l-27 33c29 11 51 26 51 48v13h-54v97h104z" />
    <glyph glyph-name="T" unicode="T" horiz-adv-x="476" 
d="M441 609h-154v-609h-99v609h-153v91h406v-91z" />
    <glyph glyph-name="Tbar" unicode="&#x166;" horiz-adv-x="476" 
d="M287 609v-184h115v-80h-115v-345h-99v345h-114v80h114v184h-153v91h406v-91h-154z" />
    <glyph glyph-name="Tcaron" unicode="&#x164;" horiz-adv-x="476" 
d="M267 759h-58l-116 131h98l47 -57l47 57h98zM441 609h-154v-609h-99v609h-153v91h406v-91z" />
    <glyph glyph-name="Tcedilla" unicode="&#x162;" horiz-adv-x="476" 
d="M441 609h-154v-609h-99v609h-153v91h406v-91zM206 -218l-104 44l108 116h68z" />
    <glyph glyph-name="uni021A" unicode="&#x21a;" horiz-adv-x="476" 
d="M441 609h-154v-609h-99v609h-153v91h406v-91zM288 -50v-97c0 -45 -22 -69 -74 -94l-27 33c29 11 51 26 51 48v13h-54v97h104z" />
    <glyph glyph-name="U" unicode="U" horiz-adv-x="680" 
d="M599 700v-437c0 -183 -105 -277 -259 -277s-259 94 -259 277v437h99v-430c0 -136 62 -189 160 -189s160 53 160 189v430h99z" />
    <glyph glyph-name="Uacute" unicode="&#xda;" horiz-adv-x="680" 
d="M371 747h-87l88 131h130zM599 700v-437c0 -183 -105 -277 -259 -277s-259 94 -259 277v437h99v-430c0 -136 62 -189 160 -189s160 53 160 189v430h99z" />
    <glyph glyph-name="Ubreve" unicode="&#x16c;" horiz-adv-x="680" 
d="M402 887h72c0 -86 -44 -138 -134 -138c-84 0 -134 52 -134 138h72c0 -57 30 -72 62 -72c37 0 62 15 62 72zM599 700v-437c0 -183 -105 -277 -259 -277s-259 94 -259 277v437h99v-430c0 -136 62 -189 160 -189s160 53 160 189v430h99z" />
    <glyph glyph-name="Ucaron" unicode="&#x1d3;" horiz-adv-x="680" 
d="M369 746h-58l-116 131h98l47 -57l47 57h98zM599 700v-437c0 -183 -105 -277 -259 -277s-259 94 -259 277v437h99v-430c0 -136 62 -189 160 -189s160 53 160 189v430h99z" />
    <glyph glyph-name="Ucircumflex" unicode="&#xdb;" horiz-adv-x="680" 
d="M485 739h-98l-47 57l-47 -57h-98l116 131h58zM599 700v-437c0 -183 -105 -277 -259 -277s-259 94 -259 277v437h99v-430c0 -136 62 -189 160 -189s160 53 160 189v430h99z" />
    <glyph glyph-name="Udieresis" unicode="&#xdc;" horiz-adv-x="680" 
d="M285 769h-105v105h105v-105zM499 769h-105v105h105v-105zM599 700v-437c0 -183 -105 -277 -259 -277s-259 94 -259 277v437h99v-430c0 -136 62 -189 160 -189s160 53 160 189v430h99z" />
    <glyph glyph-name="Ugrave" unicode="&#xd9;" horiz-adv-x="680" 
d="M399 747h-87l-131 131h130zM599 700v-437c0 -183 -105 -277 -259 -277s-259 94 -259 277v437h99v-430c0 -136 62 -189 160 -189s160 53 160 189v430h99z" />
    <glyph glyph-name="Uhungarumlaut" unicode="&#x170;" horiz-adv-x="680" 
d="M254 747h-87l88 131h130zM485 747h-87l88 131h130zM599 700v-437c0 -183 -105 -277 -259 -277s-259 94 -259 277v437h99v-430c0 -136 62 -189 160 -189s160 53 160 189v430h99z" />
    <glyph glyph-name="Umacron" unicode="&#x16a;" horiz-adv-x="680" 
d="M504 767h-329v69h329v-69zM599 700v-437c0 -183 -105 -277 -259 -277s-259 94 -259 277v437h99v-430c0 -136 62 -189 160 -189s160 53 160 189v430h99z" />
    <glyph glyph-name="Uogonek" unicode="&#x172;" horiz-adv-x="680" 
d="M599 700v-437c0 -142 -63 -231 -164 -263h18c-68 -33 -89 -63 -82 -90c8 -29 43 -32 87 -13v-73c-55 -24 -121 -21 -151 32c-23 41 -11 92 38 130h-5c-154 0 -259 94 -259 277v437h99v-430c0 -136 62 -189 160 -189s160 53 160 189v430h99z" />
    <glyph glyph-name="Uring" unicode="&#x16e;" horiz-adv-x="680" 
d="M339 904c50 0 88 -38 88 -87s-38 -87 -88 -87c-49 0 -87 38 -87 87s38 87 87 87zM339 859c-22 0 -42 -20 -42 -42c0 -24 20 -43 42 -43s42 19 42 43c0 22 -20 42 -42 42zM599 700v-437c0 -183 -105 -277 -259 -277s-259 94 -259 277v437h99v-430c0 -136 62 -189 160 -189
s160 53 160 189v430h99z" />
    <glyph glyph-name="Utilde" unicode="&#x168;" horiz-adv-x="680" 
d="M251 864c66 2 101 -43 162 -41c34 1 49 16 63 36l37 -35c-15 -37 -51 -70 -100 -71c-65 -3 -96 38 -154 36c-32 -1 -53 -16 -69 -37l-33 43c14 29 43 67 94 69zM599 700v-437c0 -183 -105 -277 -259 -277s-259 94 -259 277v437h99v-430c0 -136 62 -189 160 -189
s160 53 160 189v430h99z" />
    <glyph glyph-name="V" unicode="V" horiz-adv-x="593" 
d="M346 0h-99l-243 700h107l186 -563l185 563h107z" />
    <glyph glyph-name="W" unicode="W" horiz-adv-x="922" 
d="M644 0h-99l-84 215l-84 -215h-99l-273 700h107l216 -571l82 217l-138 354h107l82 -217l82 217h107l-138 -353l83 -218l215 571h107z" />
    <glyph glyph-name="Wacute" unicode="&#x1e82;" horiz-adv-x="922" 
d="M492 760h-87l88 131h130zM644 0h-99l-84 215l-84 -215h-99l-273 700h107l216 -571l82 217l-138 354h107l82 -217l82 217h107l-138 -353l83 -218l215 571h107z" />
    <glyph glyph-name="Wcircumflex" unicode="&#x174;" horiz-adv-x="922" 
d="M606 752h-98l-47 57l-47 -57h-98l116 131h58zM644 0h-99l-84 215l-84 -215h-99l-273 700h107l216 -571l82 217l-138 354h107l82 -217l82 217h107l-138 -353l83 -218l215 571h107z" />
    <glyph glyph-name="Wdieresis" unicode="&#x1e84;" horiz-adv-x="922" 
d="M406 782h-105v105h105v-105zM620 782h-105v105h105v-105zM644 0h-99l-84 215l-84 -215h-99l-273 700h107l216 -571l82 217l-138 354h107l82 -217l82 217h107l-138 -353l83 -218l215 571h107z" />
    <glyph glyph-name="Wgrave" unicode="&#x1e80;" horiz-adv-x="922" 
d="M520 760h-87l-131 131h130zM644 0h-99l-84 215l-84 -215h-99l-273 700h107l216 -571l82 217l-138 354h107l82 -217l82 217h107l-138 -353l83 -218l215 571h107z" />
    <glyph glyph-name="X" unicode="X" horiz-adv-x="488" 
d="M295 346l163 -346h-102l-112 237l-112 -237h-102l163 346l-168 354h104l115 -245l115 245h104z" />
    <glyph glyph-name="Y" unicode="Y" horiz-adv-x="527" 
d="M506 700l-282 -700h-100l104 261l-207 439h104l149 -322l129 322h103z" />
    <glyph glyph-name="Yacute" unicode="&#xdd;" horiz-adv-x="527" 
d="M295 760h-87l88 131h130zM506 700l-282 -700h-100l104 261l-207 439h104l149 -322l129 322h103z" />
    <glyph glyph-name="Ycircumflex" unicode="&#x176;" horiz-adv-x="527" 
d="M217 752h-98l116 131h58l116 -131h-98l-47 57zM506 700l-282 -700h-100l104 261l-207 439h104l149 -322l129 322h103z" />
    <glyph glyph-name="Ydieresis" unicode="&#x178;" horiz-adv-x="527" 
d="M209 782h-105v105h105v-105zM423 782h-105v105h105v-105zM506 700l-282 -700h-100l104 261l-207 439h104l149 -322l129 322h103z" />
    <glyph glyph-name="Ygrave" unicode="&#x1ef2;" horiz-adv-x="527" 
d="M236 760l-131 131h130l88 -131h-87zM506 700l-282 -700h-100l104 261l-207 439h104l149 -322l129 322h103z" />
    <glyph glyph-name="Z" unicode="Z" horiz-adv-x="513" 
d="M417 614l-236 -521h256v-93h-369v82l235 525h-231v93h345v-86z" />
    <glyph glyph-name="Zacute" unicode="&#x179;" horiz-adv-x="513" 
d="M288 760h-87l88 131h130zM417 614l-236 -521h256v-93h-369v82l235 525h-231v93h345v-86z" />
    <glyph glyph-name="Zcaron" unicode="&#x17d;" horiz-adv-x="513" 
d="M286 759h-58l-116 131h98l47 -57l47 57h98zM417 614l-236 -521h256v-93h-369v82l235 525h-231v93h345v-86z" />
    <glyph glyph-name="Zdotaccent" unicode="&#x17b;" horiz-adv-x="513" 
d="M257 875c32 0 53 -21 53 -54c0 -31 -21 -52 -53 -52c-33 0 -54 21 -54 52c0 33 21 54 54 54zM417 614l-236 -521h256v-93h-369v82l235 525h-231v93h345v-86z" />
    <glyph glyph-name="I.alt" horiz-adv-x="281" 
d="M190 0h-99v700h99v-700z" />
    <glyph glyph-name="Adieresis.ss02" horiz-adv-x="555" 
d="M174 777c-37 0 -63 26 -63 61c0 38 26 63 63 63s62 -25 62 -63c0 -35 -25 -61 -62 -61zM382 777c-38 0 -63 26 -63 61c0 38 25 63 63 63c36 0 62 -25 62 -63c0 -35 -26 -61 -62 -61zM406 113h-257l-35 -113h-101l220 700h89l220 -700h-101zM378 204l-100 327l-101 -327
h201z" />
    <glyph glyph-name="Odieresis.ss02" horiz-adv-x="762" 
d="M277 901c37 0 62 -25 62 -63c0 -35 -25 -61 -62 -61s-63 26 -63 61c0 38 26 63 63 63zM485 901c36 0 62 -25 62 -63c0 -35 -26 -61 -62 -61c-38 0 -63 26 -63 61c0 38 25 63 63 63zM381 714c186 0 327 -153 327 -364s-141 -364 -327 -364s-327 153 -327 364
s141 364 327 364zM381 619c-133 0 -225 -111 -225 -269s92 -269 225 -269s225 111 225 269s-92 269 -225 269z" />
    <glyph glyph-name="Udieresis.ss02" horiz-adv-x="680" 
d="M236 888c37 0 62 -25 62 -63c0 -35 -25 -61 -62 -61s-63 26 -63 61c0 38 26 63 63 63zM444 888c36 0 62 -25 62 -63c0 -35 -26 -61 -62 -61c-38 0 -63 26 -63 61c0 38 25 63 63 63zM599 700v-437c0 -183 -105 -277 -259 -277s-259 94 -259 277v437h99v-430
c0 -136 62 -189 160 -189s160 53 160 189v430h99z" />
    <glyph glyph-name="Wdieresis.ss02" horiz-adv-x="922" 
d="M357 901c37 0 62 -25 62 -63c0 -35 -25 -61 -62 -61s-63 26 -63 61c0 38 26 63 63 63zM565 901c36 0 62 -25 62 -63c0 -35 -26 -61 -62 -61c-38 0 -63 26 -63 61c0 38 25 63 63 63zM644 0h-99l-84 215l-84 -215h-99l-273 700h107l216 -571l82 217l-138 354h107l82 -217
l82 217h107l-138 -353l83 -218l215 571h107z" />
    <glyph glyph-name="Ydieresis.ss02" horiz-adv-x="527" 
d="M160 777c-37 0 -63 26 -63 61c0 38 26 63 63 63s62 -25 62 -63c0 -35 -25 -61 -62 -61zM368 777c-38 0 -63 26 -63 61c0 38 25 63 63 63c36 0 62 -25 62 -63c0 -35 -26 -61 -62 -61zM506 700l-282 -700h-100l104 261l-207 439h104l149 -322l129 322h103z" />
    <glyph glyph-name="a" unicode="a" horiz-adv-x="508" 
d="M261 517c60 0 185 -22 185 -178v-339h-87v67c-34 -47 -94 -81 -169 -81c-78 0 -146 37 -146 129c0 102 93 157 196 184l111 29v18c0 61 -46 86 -92 86c-51 0 -98 -31 -135 -75l-66 55c64 77 135 105 203 105zM351 247l-96 -25c-87 -23 -116 -66 -116 -100
c0 -37 31 -51 62 -51c56 0 150 47 150 124v52z" />
    <glyph glyph-name="aacute" unicode="&#xe1;" horiz-adv-x="508" 
d="M416 694l-131 -131h-87l88 131h130zM261 517c60 0 185 -22 185 -178v-339h-87v67c-34 -47 -94 -81 -169 -81c-78 0 -146 37 -146 129c0 102 93 157 196 184l111 29v18c0 61 -46 86 -92 86c-51 0 -98 -31 -135 -75l-66 55c64 77 135 105 203 105zM351 247l-96 -25
c-87 -23 -116 -66 -116 -100c0 -37 31 -51 62 -51c56 0 150 47 150 124v52z" />
    <glyph glyph-name="abreve" unicode="&#x103;" horiz-adv-x="508" 
d="M316 703h72c0 -86 -44 -138 -134 -138c-84 0 -134 52 -134 138h72c0 -57 30 -72 62 -72c37 0 62 15 62 72zM261 517c60 0 185 -22 185 -178v-339h-87v67c-34 -47 -94 -81 -169 -81c-78 0 -146 37 -146 129c0 102 93 157 196 184l111 29v18c0 61 -46 86 -92 86
c-51 0 -98 -31 -135 -75l-66 55c64 77 135 105 203 105zM351 247l-96 -25c-87 -23 -116 -66 -116 -100c0 -37 31 -51 62 -51c56 0 150 47 150 124v52z" />
    <glyph glyph-name="acaron" unicode="&#x1ce;" horiz-adv-x="508" 
d="M399 693l-116 -131h-58l-116 131h98l47 -57l47 57h98zM261 517c60 0 185 -22 185 -178v-339h-87v67c-34 -47 -94 -81 -169 -81c-78 0 -146 37 -146 129c0 102 93 157 196 184l111 29v18c0 61 -46 86 -92 86c-51 0 -98 -31 -135 -75l-66 55c64 77 135 105 203 105z
M351 247l-96 -25c-87 -23 -116 -66 -116 -100c0 -37 31 -51 62 -51c56 0 150 47 150 124v52z" />
    <glyph glyph-name="acircumflex" unicode="&#xe2;" horiz-adv-x="508" 
d="M283 686l116 -131h-98l-47 57l-47 -57h-98l116 131h58zM261 517c60 0 185 -22 185 -178v-339h-87v67c-34 -47 -94 -81 -169 -81c-78 0 -146 37 -146 129c0 102 93 157 196 184l111 29v18c0 61 -46 86 -92 86c-51 0 -98 -31 -135 -75l-66 55c64 77 135 105 203 105z
M351 247l-96 -25c-87 -23 -116 -66 -116 -100c0 -37 31 -51 62 -51c56 0 150 47 150 124v52z" />
    <glyph glyph-name="adieresis" unicode="&#xe4;" horiz-adv-x="508" 
d="M199 690v-105h-105v105h105zM413 690v-105h-105v105h105zM261 517c60 0 185 -22 185 -178v-339h-87v67c-34 -47 -94 -81 -169 -81c-78 0 -146 37 -146 129c0 102 93 157 196 184l111 29v18c0 61 -46 86 -92 86c-51 0 -98 -31 -135 -75l-66 55c64 77 135 105 203 105z
M351 247l-96 -25c-87 -23 -116 -66 -116 -100c0 -37 31 -51 62 -51c56 0 150 47 150 124v52z" />
    <glyph glyph-name="agrave" unicode="&#xe0;" horiz-adv-x="508" 
d="M225 694l88 -131h-87l-131 131h130zM261 517c60 0 185 -22 185 -178v-339h-87v67c-34 -47 -94 -81 -169 -81c-78 0 -146 37 -146 129c0 102 93 157 196 184l111 29v18c0 61 -46 86 -92 86c-51 0 -98 -31 -135 -75l-66 55c64 77 135 105 203 105zM351 247l-96 -25
c-87 -23 -116 -66 -116 -100c0 -37 31 -51 62 -51c56 0 150 47 150 124v52z" />
    <glyph glyph-name="amacron" unicode="&#x101;" horiz-adv-x="508" 
d="M418 652v-69h-329v69h329zM261 517c60 0 185 -22 185 -178v-339h-87v67c-34 -47 -94 -81 -169 -81c-78 0 -146 37 -146 129c0 102 93 157 196 184l111 29v18c0 61 -46 86 -92 86c-51 0 -98 -31 -135 -75l-66 55c64 77 135 105 203 105zM351 247l-96 -25
c-87 -23 -116 -66 -116 -100c0 -37 31 -51 62 -51c56 0 150 47 150 124v52z" />
    <glyph glyph-name="aogonek" unicode="&#x105;" horiz-adv-x="508" 
d="M364 -90c8 -29 43 -32 87 -13v-73c-55 -24 -121 -21 -151 32c-26 46 -7 106 59 144v67c-34 -47 -94 -81 -169 -81c-78 0 -146 37 -146 129c0 102 93 157 196 184l111 29v18c0 61 -46 86 -92 86c-51 0 -98 -31 -135 -75l-66 55c64 77 135 105 203 105
c60 0 185 -22 185 -178v-339c-68 -33 -89 -63 -82 -90zM351 195v52l-96 -25c-87 -23 -116 -66 -116 -100c0 -37 31 -51 62 -51c56 0 150 47 150 124z" />
    <glyph glyph-name="aring" unicode="&#xe5;" horiz-adv-x="508" 
d="M253 720c50 0 88 -38 88 -87s-38 -87 -88 -87c-49 0 -87 38 -87 87s38 87 87 87zM253 675c-22 0 -42 -20 -42 -42c0 -24 20 -43 42 -43s42 19 42 43c0 22 -20 42 -42 42zM261 517c60 0 185 -22 185 -178v-339h-87v67c-34 -47 -94 -81 -169 -81c-78 0 -146 37 -146 129
c0 102 93 157 196 184l111 29v18c0 61 -46 86 -92 86c-51 0 -98 -31 -135 -75l-66 55c64 77 135 105 203 105zM351 247l-96 -25c-87 -23 -116 -66 -116 -100c0 -37 31 -51 62 -51c56 0 150 47 150 124v52z" />
    <glyph glyph-name="atilde" unicode="&#xe3;" horiz-adv-x="508" 
d="M165 680c66 2 101 -43 162 -41c34 1 49 16 63 36l37 -35c-15 -37 -51 -70 -100 -71c-65 -3 -96 38 -154 36c-32 -1 -53 -16 -69 -37l-33 43c14 29 43 67 94 69zM261 517c60 0 185 -22 185 -178v-339h-87v67c-34 -47 -94 -81 -169 -81c-78 0 -146 37 -146 129
c0 102 93 157 196 184l111 29v18c0 61 -46 86 -92 86c-51 0 -98 -31 -135 -75l-66 55c64 77 135 105 203 105zM351 247l-96 -25c-87 -23 -116 -66 -116 -100c0 -37 31 -51 62 -51c56 0 150 47 150 124v52z" />
    <glyph glyph-name="ae" unicode="&#xe6;" horiz-adv-x="861" 
d="M812 213h-357c6 -74 56 -142 150 -142c49 0 97 19 142 54l57 -64c-57 -46 -120 -75 -198 -75c-94 0 -167 42 -209 111c-20 -44 -104 -111 -197 -111c-82 0 -150 37 -150 129c0 102 93 157 196 184l111 29v18c0 61 -46 86 -92 86c-51 0 -98 -31 -135 -75l-66 55
c64 77 135 105 203 105c58 0 120 -23 157 -84c27 37 90 84 170 84c124 0 218 -88 218 -242v-62zM455 291h269c-3 86 -51 141 -132 141c-91 0 -134 -69 -137 -141zM357 247l-96 -25c-87 -23 -116 -66 -116 -100c0 -37 31 -51 62 -51c56 0 150 47 150 124v52z" />
    <glyph glyph-name="b" unicode="b" 
d="M180 759v-303c38 40 88 61 147 61c120 0 219 -110 219 -265c0 -156 -99 -266 -219 -266c-62 0 -114 23 -152 66v-52h-90v759h95zM312 430c-84 0 -137 -68 -137 -178s53 -178 137 -178s137 68 137 178s-53 178 -137 178z" />
    <glyph glyph-name="c" unicode="c" horiz-adv-x="532" 
d="M289 517c90 0 166 -45 209 -133l-73 -40c-33 61 -78 86 -133 86c-92 0 -142 -68 -142 -178c0 -108 48 -178 144 -178c57 0 99 24 129 73l73 -41c-40 -75 -109 -120 -202 -120c-145 0 -241 110 -241 266s97 265 236 265z" />
    <glyph glyph-name="cacute" unicode="&#x107;" horiz-adv-x="532" 
d="M309 560h-87l88 131h130zM289 517c90 0 166 -45 209 -133l-73 -40c-33 61 -78 86 -133 86c-92 0 -142 -68 -142 -178c0 -108 48 -178 144 -178c57 0 99 24 129 73l73 -41c-40 -75 -109 -120 -202 -120c-145 0 -241 110 -241 266s97 265 236 265z" />
    <glyph glyph-name="ccaron" unicode="&#x10d;" horiz-adv-x="532" 
d="M307 559h-58l-116 131h98l47 -57l47 57h98zM289 517c90 0 166 -45 209 -133l-73 -40c-33 61 -78 86 -133 86c-92 0 -142 -68 -142 -178c0 -108 48 -178 144 -178c57 0 99 24 129 73l73 -41c-40 -75 -109 -120 -202 -120c-145 0 -241 110 -241 266s97 265 236 265z" />
    <glyph glyph-name="ccedilla" unicode="&#xe7;" horiz-adv-x="532" 
d="M289 517c90 0 166 -45 209 -133l-73 -40c-33 61 -78 86 -133 86c-92 0 -142 -68 -142 -178c0 -108 48 -178 144 -178c57 0 99 24 129 73l73 -41c-40 -75 -109 -120 -202 -120c-145 0 -241 110 -241 266s97 265 236 265zM261 -227l-104 44l108 116h68z" />
    <glyph glyph-name="ccircumflex" unicode="&#x109;" horiz-adv-x="532" 
d="M423 552h-98l-47 57l-47 -57h-98l116 131h58zM289 517c90 0 166 -45 209 -133l-73 -40c-33 61 -78 86 -133 86c-92 0 -142 -68 -142 -178c0 -108 48 -178 144 -178c57 0 99 24 129 73l73 -41c-40 -75 -109 -120 -202 -120c-145 0 -241 110 -241 266s97 265 236 265z" />
    <glyph glyph-name="cdotaccent" unicode="&#x10b;" horiz-adv-x="532" 
d="M278 675c32 0 53 -21 53 -54c0 -31 -21 -52 -53 -52c-33 0 -54 21 -54 52c0 33 21 54 54 54zM289 517c90 0 166 -45 209 -133l-73 -40c-33 61 -78 86 -133 86c-92 0 -142 -68 -142 -178c0 -108 48 -178 144 -178c57 0 99 24 129 73l73 -41c-40 -75 -109 -120 -202 -120
c-145 0 -241 110 -241 266s97 265 236 265z" />
    <glyph glyph-name="d" unicode="d" 
d="M515 0h-90v52c-38 -43 -90 -66 -152 -66c-120 0 -219 110 -219 266c0 155 99 265 219 265c59 0 109 -21 147 -61v303h95v-759zM288 430c-84 0 -137 -68 -137 -178s53 -178 137 -178s137 68 137 178s-53 178 -137 178z" />
    <glyph glyph-name="eth" unicode="&#xf0;" horiz-adv-x="576" 
d="M195 716l74 48c25 -21 49 -44 72 -68l99 53l29 -54l-87 -46c85 -105 140 -234 140 -397c0 -156 -97 -266 -234 -266s-234 110 -234 266s99 265 226 265c43 0 87 -18 113 -47c-16 49 -48 96 -86 139l-117 -63l-29 54l102 55c-22 21 -45 42 -68 61zM288 430
c-88 0 -137 -68 -137 -178c0 -109 49 -178 137 -178s137 69 137 178c0 110 -49 178 -137 178z" />
    <glyph glyph-name="dcaron" unicode="&#x10f;" 
d="M515 0h-90v52c-38 -43 -90 -66 -152 -66c-120 0 -219 110 -219 266c0 155 99 265 219 265c59 0 109 -21 147 -61v303h95v-759zM692 716v-107c0 -55 -20 -90 -72 -119l-27 33c29 15 49 43 49 73v13h-54v107h104zM288 430c-84 0 -137 -68 -137 -178s53 -178 137 -178
s137 68 137 178s-53 178 -137 178z" />
    <glyph glyph-name="dcroat" unicode="&#x111;" horiz-adv-x="633" 
d="M608 578h-93v-578h-90v52c-38 -43 -90 -66 -152 -66c-120 0 -219 110 -219 266c0 155 99 265 219 265c59 0 109 -21 147 -61v122h-148v81h148v100h95v-100h93v-81zM288 74c84 0 137 68 137 178s-53 178 -137 178s-137 -68 -137 -178s53 -178 137 -178z" />
    <glyph glyph-name="e" unicode="e" horiz-adv-x="557" 
d="M289 517c126 0 219 -88 219 -242v-62h-357c6 -74 56 -142 150 -142c49 0 98 19 142 55l57 -65c-57 -46 -120 -75 -198 -75c-151 0 -249 108 -249 266c0 153 98 265 236 265zM289 432c-93 0 -135 -69 -138 -141h269c-3 86 -52 141 -131 141z" />
    <glyph glyph-name="eacute" unicode="&#xe9;" horiz-adv-x="557" 
d="M312 560h-87l88 131h130zM289 517c126 0 219 -88 219 -242v-62h-357c6 -74 56 -142 150 -142c49 0 98 19 142 55l57 -65c-57 -46 -120 -75 -198 -75c-151 0 -249 108 -249 266c0 153 98 265 236 265zM289 432c-93 0 -135 -69 -138 -141h269c-3 86 -52 141 -131 141z" />
    <glyph glyph-name="ebreve" unicode="&#x115;" horiz-adv-x="557" 
d="M343 700h72c0 -86 -44 -138 -134 -138c-84 0 -134 52 -134 138h72c0 -57 30 -72 62 -72c37 0 62 15 62 72zM289 517c126 0 219 -88 219 -242v-62h-357c6 -74 56 -142 150 -142c49 0 98 19 142 55l57 -65c-57 -46 -120 -75 -198 -75c-151 0 -249 108 -249 266
c0 153 98 265 236 265zM289 432c-93 0 -135 -69 -138 -141h269c-3 86 -52 141 -131 141z" />
    <glyph glyph-name="ecaron" unicode="&#x11b;" horiz-adv-x="557" 
d="M310 559h-58l-116 131h98l47 -57l47 57h98zM289 517c126 0 219 -88 219 -242v-62h-357c6 -74 56 -142 150 -142c49 0 98 19 142 55l57 -65c-57 -46 -120 -75 -198 -75c-151 0 -249 108 -249 266c0 153 98 265 236 265zM289 432c-93 0 -135 -69 -138 -141h269
c-3 86 -52 141 -131 141z" />
    <glyph glyph-name="ecircumflex" unicode="&#xea;" horiz-adv-x="557" 
d="M426 552h-98l-47 57l-47 -57h-98l116 131h58zM289 517c126 0 219 -88 219 -242v-62h-357c6 -74 56 -142 150 -142c49 0 98 19 142 55l57 -65c-57 -46 -120 -75 -198 -75c-151 0 -249 108 -249 266c0 153 98 265 236 265zM289 432c-93 0 -135 -69 -138 -141h269
c-3 86 -52 141 -131 141z" />
    <glyph glyph-name="edieresis" unicode="&#xeb;" horiz-adv-x="557" 
d="M226 582h-105v105h105v-105zM440 582h-105v105h105v-105zM289 517c126 0 219 -88 219 -242v-62h-357c6 -74 56 -142 150 -142c49 0 98 19 142 55l57 -65c-57 -46 -120 -75 -198 -75c-151 0 -249 108 -249 266c0 153 98 265 236 265zM289 432c-93 0 -135 -69 -138 -141
h269c-3 86 -52 141 -131 141z" />
    <glyph glyph-name="edotaccent" unicode="&#x117;" horiz-adv-x="557" 
d="M281 675c32 0 53 -21 53 -54c0 -31 -21 -52 -53 -52c-33 0 -54 21 -54 52c0 33 21 54 54 54zM289 517c126 0 219 -88 219 -242v-62h-357c6 -74 56 -142 150 -142c49 0 98 19 142 55l57 -65c-57 -46 -120 -75 -198 -75c-151 0 -249 108 -249 266c0 153 98 265 236 265z
M289 432c-93 0 -135 -69 -138 -141h269c-3 86 -52 141 -131 141z" />
    <glyph glyph-name="egrave" unicode="&#xe8;" horiz-adv-x="557" 
d="M340 560h-87l-131 131h130zM289 517c126 0 219 -88 219 -242v-62h-357c6 -74 56 -142 150 -142c49 0 98 19 142 55l57 -65c-57 -46 -120 -75 -198 -75c-151 0 -249 108 -249 266c0 153 98 265 236 265zM289 432c-93 0 -135 -69 -138 -141h269c-3 86 -52 141 -131 141z
" />
    <glyph glyph-name="emacron" unicode="&#x113;" horiz-adv-x="557" 
d="M445 580h-329v69h329v-69zM289 517c126 0 219 -88 219 -242v-62h-357c6 -74 56 -142 150 -142c49 0 98 19 142 55l57 -65c-57 -46 -120 -75 -198 -75c-151 0 -249 108 -249 266c0 153 98 265 236 265zM289 432c-93 0 -135 -69 -138 -141h269c-3 86 -52 141 -131 141z" />
    <glyph glyph-name="eogonek" unicode="&#x119;" horiz-adv-x="557" 
d="M508 213h-357c6 -74 56 -142 150 -142c49 0 98 19 142 55l57 -65c-35 -28 -72 -50 -113 -62c-66 -33 -86 -62 -79 -89c8 -29 43 -32 87 -13v-73c-55 -24 -121 -21 -151 32c-23 41 -11 93 39 131c-140 8 -230 114 -230 265c0 153 98 265 236 265c126 0 219 -88 219 -242
v-62zM151 291h269c-3 86 -52 141 -131 141c-93 0 -135 -69 -138 -141z" />
    <glyph glyph-name="f" unicode="f" horiz-adv-x="310" 
d="M291 671h-38c-32 0 -59 -16 -59 -79v-89h86v-88h-86v-415h-95v415h-68v88h68v93c0 106 59 163 135 163h57v-88z" />
    <glyph glyph-name="g" unicode="g" horiz-adv-x="584" 
d="M275 517c55 0 104 -21 142 -65v51h92v-496c0 -164 -107 -241 -239 -241c-97 0 -168 37 -212 71l39 78c45 -34 109 -64 177 -64c60 0 151 32 151 155v52c-27 -42 -78 -72 -147 -72c-127 0 -230 110 -230 266s102 265 227 265zM282 430c-84 0 -137 -68 -137 -178
s53 -178 137 -178s137 68 137 178s-53 178 -137 178z" />
    <glyph glyph-name="gbreve" unicode="&#x11f;" horiz-adv-x="584" 
d="M366 700h72c0 -86 -44 -138 -134 -138c-84 0 -134 52 -134 138h72c0 -57 30 -72 62 -72c37 0 62 15 62 72zM275 517c55 0 104 -21 142 -65v51h92v-496c0 -164 -107 -241 -239 -241c-97 0 -168 37 -212 71l39 78c45 -34 109 -64 177 -64c60 0 151 32 151 155v52
c-27 -42 -78 -72 -147 -72c-127 0 -230 110 -230 266s102 265 227 265zM282 430c-84 0 -137 -68 -137 -178s53 -178 137 -178s137 68 137 178s-53 178 -137 178z" />
    <glyph glyph-name="gcircumflex" unicode="&#x11d;" horiz-adv-x="584" 
d="M449 552h-98l-47 57l-47 -57h-98l116 131h58zM275 517c55 0 104 -21 142 -65v51h92v-496c0 -164 -107 -241 -239 -241c-97 0 -168 37 -212 71l39 78c45 -34 109 -64 177 -64c60 0 151 32 151 155v52c-27 -42 -78 -72 -147 -72c-127 0 -230 110 -230 266s102 265 227 265z
M282 430c-84 0 -137 -68 -137 -178s53 -178 137 -178s137 68 137 178s-53 178 -137 178z" />
    <glyph glyph-name="gcommaaccent" unicode="&#x123;" horiz-adv-x="628" 
d="M253 575v97c0 45 22 69 74 94l27 -33c-29 -11 -51 -26 -51 -48v-13h54v-97h-104zM275 517c55 0 104 -21 142 -65v51h92v-496c0 -164 -107 -241 -239 -241c-97 0 -168 37 -212 71l39 78c45 -34 109 -64 177 -64c60 0 151 32 151 155v52c-27 -42 -78 -72 -147 -72
c-127 0 -230 110 -230 266s102 265 227 265zM282 430c-84 0 -137 -68 -137 -178s53 -178 137 -178s137 68 137 178s-53 178 -137 178z" />
    <glyph glyph-name="gdotaccent" unicode="&#x121;" horiz-adv-x="584" 
d="M304 675c32 0 53 -21 53 -54c0 -31 -21 -52 -53 -52c-33 0 -54 21 -54 52c0 33 21 54 54 54zM275 517c55 0 104 -21 142 -65v51h92v-496c0 -164 -107 -241 -239 -241c-97 0 -168 37 -212 71l39 78c45 -34 109 -64 177 -64c60 0 151 32 151 155v52
c-27 -42 -78 -72 -147 -72c-127 0 -230 110 -230 266s102 265 227 265zM282 430c-84 0 -137 -68 -137 -178s53 -178 137 -178s137 68 137 178s-53 178 -137 178z" />
    <glyph glyph-name="h" unicode="h" horiz-adv-x="565" 
d="M316 517c99 0 175 -64 175 -194v-323h-95v300c0 74 -27 130 -100 130c-79 0 -116 -64 -116 -161v-269h-95v759h95v-305c27 35 71 63 136 63z" />
    <glyph glyph-name="hbar" unicode="&#x127;" horiz-adv-x="575" 
d="M326 517c99 0 175 -64 175 -194v-323h-95v300c0 74 -27 130 -100 130c-79 0 -116 -64 -116 -161v-269h-95v578h-70v78h70v103h95v-103h144v-78h-144v-124c27 35 71 63 136 63z" />
    <glyph glyph-name="hcircumflex" unicode="&#x125;" horiz-adv-x="565" 
d="M443 729h-98l-47 57l-47 -57h-98l116 131h58zM174 700v-250c26 40 72 67 141 67c100 0 176 -64 176 -204v-313h-95v290c0 84 -27 140 -111 140c-63 0 -105 -35 -105 -147v-283h-95v700h89z" />
    <glyph glyph-name="i" unicode="i" horiz-adv-x="269" 
d="M184 596h-99v104h99v-104zM182 0h-95v503h95v-503z" />
    <glyph glyph-name="dotlessi" unicode="&#x131;" horiz-adv-x="265" 
d="M180 0h-95v503h95v-503z" />
    <glyph glyph-name="iacute" unicode="&#xed;" horiz-adv-x="289" 
d="M153 560h-87l88 131h130zM180 0h-95v503h95v-503z" />
    <glyph glyph-name="icaron" unicode="&#x1d0;" horiz-adv-x="265" 
d="M162 559h-58l-116 131h98l47 -57l47 57h98zM180 0h-95v503h95v-503z" />
    <glyph glyph-name="icircumflex" unicode="&#xee;" horiz-adv-x="289" 
d="M277 552h-98l-47 57l-47 -57h-98l116 131h58zM180 0h-95v503h95v-503z" />
    <glyph glyph-name="idieresis" unicode="&#xef;" horiz-adv-x="289" 
d="M80 582h-105v105h105v-105zM294 582h-105v105h105v-105zM180 0h-95v503h95v-503z" />
    <glyph glyph-name="i.loclTRK" horiz-adv-x="265" 
d="M133 675c32 0 53 -21 53 -54c0 -31 -21 -52 -53 -52c-33 0 -54 21 -54 52c0 33 21 54 54 54zM180 0h-95v503h95v-503z" />
    <glyph glyph-name="igrave" unicode="&#xec;" horiz-adv-x="289" 
d="M229 560h-87l-131 131h130zM180 0h-95v503h95v-503z" />
    <glyph glyph-name="ij" unicode="&#x133;" horiz-adv-x="536" 
d="M184 596h-99v104h99v-104zM462 596h-99v104h99v-104zM182 0h-95v503h95v-503zM460 503v-561c0 -119 -70 -166 -150 -166h-27v87h13c24 0 69 7 69 77v563h95z" />
    <glyph glyph-name="imacron" unicode="&#x12b;" horiz-adv-x="265" 
d="M297 580h-329v69h329v-69zM180 0h-95v503h95v-503z" />
    <glyph glyph-name="iogonek" unicode="&#x12f;" horiz-adv-x="269" 
d="M184 596h-99v104h99v-104zM106 -90c8 -29 43 -32 87 -13v-73c-55 -24 -121 -21 -151 32c-26 46 -7 106 59 144h-14v503h95v-503h6c-68 -33 -89 -63 -82 -90z" />
    <glyph glyph-name="itilde" unicode="&#x129;" horiz-adv-x="265" 
d="M44 677c66 2 101 -43 162 -41c34 1 49 16 63 36l37 -35c-15 -37 -51 -70 -100 -71c-65 -3 -96 38 -154 36c-32 -1 -53 -16 -69 -37l-33 43c14 29 43 67 94 69zM180 0h-95v503h95v-503z" />
    <glyph glyph-name="j" unicode="j" horiz-adv-x="267" 
d="M193 596h-99v104h99v-104zM191 503v-561c0 -119 -70 -166 -150 -166h-27v87h13c24 0 69 7 69 77v563h95z" />
    <glyph glyph-name="jcircumflex" unicode="&#x135;" horiz-adv-x="307" 
d="M298 539h-98l-47 57l-47 -57h-98l116 131h58zM191 500v-558c0 -119 -70 -166 -150 -166h-27v87h13c24 0 69 7 69 77v560h95z" />
    <glyph glyph-name="k" unicode="k" horiz-adv-x="518" 
d="M386 0l-206 264v-264h-95v759h95v-460l185 204h121l-208 -222l226 -281h-118z" />
    <glyph glyph-name="kcommaaccent" unicode="&#x137;" horiz-adv-x="545" 
d="M504 0h-118l-206 264v-264h-95v759h95v-460l185 204h121l-208 -222zM244 -50h104v-97c0 -45 -22 -69 -74 -94l-27 33c29 11 51 26 51 48v13h-54v97z" />
    <glyph glyph-name="l" unicode="l" horiz-adv-x="265" 
d="M180 0h-95v759h95v-759z" />
    <glyph glyph-name="lacute" unicode="&#x13a;" horiz-adv-x="305" 
d="M189 749h-87l88 131h130zM186 0h-95v700h95v-700z" />
    <glyph glyph-name="lcaron" unicode="&#x13e;" horiz-adv-x="265" 
d="M180 0h-95v759h95v-759zM363 759v-107c0 -55 -20 -90 -72 -119l-27 33c29 15 49 43 49 73v13h-54v107h104z" />
    <glyph glyph-name="lcommaaccent" unicode="&#x13c;" horiz-adv-x="277" 
d="M180 0h-95v759h95v-759zM194 -50v-97c0 -45 -22 -69 -74 -94l-27 33c29 11 51 26 51 48v13h-54v97h104z" />
    <glyph glyph-name="ldot" unicode="&#x140;" horiz-adv-x="265" 
d="M180 0h-95v759h95v-759zM327 342c28 0 49 -21 49 -49s-21 -49 -49 -49s-49 21 -49 49s21 49 49 49z" />
    <glyph glyph-name="lslash" unicode="&#x142;" horiz-adv-x="418" 
d="M255 312v-312h-95v267l-73 -34l-36 80l109 51v395h95v-350l78 37l36 -80z" />
    <glyph glyph-name="m" unicode="m" horiz-adv-x="857" 
d="M607 517c96 0 174 -64 174 -194v-323h-95v300c0 75 -32 130 -103 130c-57 0 -103 -38 -103 -150v-280h-95v300c0 78 -32 130 -103 130c-60 0 -102 -38 -102 -147v-283h-95v503h89v-53c26 40 82 67 142 67c73 0 117 -41 142 -81c26 52 84 81 149 81z" />
    <glyph glyph-name="n" unicode="n" horiz-adv-x="565" 
d="M316 517c99 0 175 -64 175 -194v-323h-95v300c0 74 -27 130 -100 130c-79 0 -116 -64 -116 -161v-269h-95v503h89v-58c26 40 72 72 142 72z" />
    <glyph glyph-name="nacute" unicode="&#x144;" horiz-adv-x="565" 
d="M314 563h-87l88 131h130zM316 517c99 0 175 -64 175 -194v-323h-95v300c0 74 -27 130 -100 130c-79 0 -116 -64 -116 -161v-269h-95v503h89v-58c26 40 72 72 142 72z" />
    <glyph glyph-name="ncaron" unicode="&#x148;" horiz-adv-x="565" 
d="M312 562h-58l-116 131h98l47 -57l47 57h98zM316 517c99 0 175 -64 175 -194v-323h-95v300c0 74 -27 130 -100 130c-79 0 -116 -64 -116 -161v-269h-95v503h89v-58c26 40 72 72 142 72z" />
    <glyph glyph-name="ncommaaccent" unicode="&#x146;" horiz-adv-x="573" 
d="M316 517c99 0 175 -64 175 -194v-323h-95v300c0 74 -27 130 -100 130c-79 0 -116 -64 -116 -161v-269h-95v503h89v-58c26 40 72 72 142 72zM346 -50v-97c0 -45 -22 -69 -74 -94l-27 33c29 11 51 26 51 48v13h-54v97h104z" />
    <glyph glyph-name="ntilde" unicode="&#xf1;" horiz-adv-x="565" 
d="M194 680c66 2 101 -43 162 -41c34 1 49 16 63 36l37 -35c-15 -37 -51 -70 -100 -71c-65 -3 -96 38 -154 36c-32 -1 -53 -16 -69 -37l-33 43c14 29 43 67 94 69zM316 517c99 0 175 -64 175 -194v-323h-95v300c0 74 -27 130 -100 130c-79 0 -116 -64 -116 -161v-269h-95
v503h89v-58c26 40 72 72 142 72z" />
    <glyph glyph-name="o" unicode="o" horiz-adv-x="576" 
d="M288 517c135 0 234 -109 234 -265s-99 -266 -234 -266s-234 110 -234 266s99 265 234 265zM288 430c-84 0 -137 -68 -137 -178s53 -178 137 -178s137 68 137 178s-53 178 -137 178z" />
    <glyph glyph-name="oacute" unicode="&#xf3;" horiz-adv-x="576" 
d="M319 560h-87l88 131h130zM288 517c135 0 234 -109 234 -265s-99 -266 -234 -266s-234 110 -234 266s99 265 234 265zM288 430c-84 0 -137 -68 -137 -178s53 -178 137 -178s137 68 137 178s-53 178 -137 178z" />
    <glyph glyph-name="obreve" unicode="&#x14f;" horiz-adv-x="576" 
d="M350 700h72c0 -86 -44 -138 -134 -138c-84 0 -134 52 -134 138h72c0 -57 30 -72 62 -72c37 0 62 15 62 72zM288 517c135 0 234 -109 234 -265s-99 -266 -234 -266s-234 110 -234 266s99 265 234 265zM288 430c-84 0 -137 -68 -137 -178s53 -178 137 -178s137 68 137 178
s-53 178 -137 178z" />
    <glyph glyph-name="ocaron" unicode="&#x1d2;" horiz-adv-x="576" 
d="M317 559h-58l-116 131h98l47 -57l47 57h98zM288 517c135 0 234 -109 234 -265s-99 -266 -234 -266s-234 110 -234 266s99 265 234 265zM288 430c-84 0 -137 -68 -137 -178s53 -178 137 -178s137 68 137 178s-53 178 -137 178z" />
    <glyph glyph-name="ocircumflex" unicode="&#xf4;" horiz-adv-x="576" 
d="M433 552h-98l-47 57l-47 -57h-98l116 131h58zM288 517c135 0 234 -109 234 -265s-99 -266 -234 -266s-234 110 -234 266s99 265 234 265zM288 430c-84 0 -137 -68 -137 -178s53 -178 137 -178s137 68 137 178s-53 178 -137 178z" />
    <glyph glyph-name="odieresis" unicode="&#xf6;" horiz-adv-x="576" 
d="M233 582h-105v105h105v-105zM447 582h-105v105h105v-105zM288 517c135 0 234 -109 234 -265s-99 -266 -234 -266s-234 110 -234 266s99 265 234 265zM288 430c-84 0 -137 -68 -137 -178s53 -178 137 -178s137 68 137 178s-53 178 -137 178z" />
    <glyph glyph-name="ograve" unicode="&#xf2;" horiz-adv-x="576" 
d="M347 560h-87l-131 131h130zM288 517c135 0 234 -109 234 -265s-99 -266 -234 -266s-234 110 -234 266s99 265 234 265zM288 430c-84 0 -137 -68 -137 -178s53 -178 137 -178s137 68 137 178s-53 178 -137 178z" />
    <glyph glyph-name="ohungarumlaut" unicode="&#x151;" horiz-adv-x="576" 
d="M202 560h-87l88 131h130zM433 560h-87l88 131h130zM288 517c135 0 234 -109 234 -265s-99 -266 -234 -266s-234 110 -234 266s99 265 234 265zM288 430c-84 0 -137 -68 -137 -178s53 -178 137 -178s137 68 137 178s-53 178 -137 178z" />
    <glyph glyph-name="omacron" unicode="&#x14d;" horiz-adv-x="576" 
d="M452 580h-329v69h329v-69zM288 517c135 0 234 -109 234 -265s-99 -266 -234 -266s-234 110 -234 266s99 265 234 265zM288 430c-84 0 -137 -68 -137 -178s53 -178 137 -178s137 68 137 178s-53 178 -137 178z" />
    <glyph glyph-name="oslash" unicode="&#xf8;" horiz-adv-x="604" 
d="M517 507l-53 -73c36 -46 58 -109 58 -182c0 -156 -99 -266 -234 -266c-46 0 -88 13 -124 36l-53 -73l-46 33l56 77c-42 47 -67 114 -67 193c0 156 99 265 234 265c51 0 97 -16 135 -44l48 67zM151 252c0 -47 9 -86 27 -115l192 264c-22 19 -50 29 -82 29
c-84 0 -137 -68 -137 -178zM288 74c84 0 137 68 137 178c0 40 -7 74 -20 101l-188 -258c20 -14 44 -21 71 -21z" />
    <glyph glyph-name="otilde" unicode="&#xf5;" horiz-adv-x="576" 
d="M199 677c66 2 101 -43 162 -41c34 1 49 16 63 36l37 -35c-15 -37 -51 -70 -100 -71c-65 -3 -96 38 -154 36c-32 -1 -53 -16 -69 -37l-33 43c14 29 43 67 94 69zM288 517c135 0 234 -109 234 -265s-99 -266 -234 -266s-234 110 -234 266s99 265 234 265zM288 430
c-84 0 -137 -68 -137 -178s53 -178 137 -178s137 68 137 178s-53 178 -137 178z" />
    <glyph glyph-name="oe" unicode="&#x153;" horiz-adv-x="929" 
d="M880 213h-357c6 -74 56 -142 150 -142c49 0 98 19 142 55l57 -65c-57 -46 -120 -75 -198 -75c-88 0 -157 36 -200 98c-42 -61 -108 -98 -186 -98c-135 0 -234 110 -234 266s99 265 234 265c78 0 144 -36 186 -97c42 60 108 97 187 97c126 0 219 -88 219 -242v-62z
M523 291h269c-3 86 -52 141 -131 141c-93 0 -135 -69 -138 -141zM288 74c84 0 137 68 137 178s-53 178 -137 178s-137 -68 -137 -178s53 -178 137 -178z" />
    <glyph glyph-name="p" unicode="p" 
d="M327 517c120 0 219 -110 219 -266c0 -155 -99 -265 -219 -265c-59 0 -109 21 -147 61v-269h-95v725h90v-52c38 43 90 66 152 66zM312 429c-84 0 -137 -68 -137 -178s53 -178 137 -178s137 68 137 178s-53 178 -137 178z" />
    <glyph glyph-name="thorn" unicode="&#xfe;" 
d="M327 517c120 0 219 -110 219 -266c0 -155 -99 -265 -219 -265c-59 0 -109 21 -147 61v-269h-95v981h95v-303c38 40 88 61 147 61zM312 73c84 0 137 68 137 178s-53 178 -137 178s-137 -68 -137 -178s53 -178 137 -178z" />
    <glyph glyph-name="q" unicode="q" 
d="M273 517c62 0 114 -23 152 -66v52h90v-725h-95v269c-38 -40 -88 -61 -147 -61c-120 0 -219 110 -219 265c0 156 99 266 219 266zM288 429c-84 0 -137 -68 -137 -178s53 -178 137 -178s137 68 137 178s-53 178 -137 178z" />
    <glyph glyph-name="r" unicode="r" horiz-adv-x="348" 
d="M327 413h-44c-61 0 -103 -44 -103 -126v-287h-95v503h89v-74c26 45 71 78 127 78h26v-94z" />
    <glyph glyph-name="racute" unicode="&#x155;" horiz-adv-x="348" 
d="M204 560h-87l88 131h130zM327 413h-44c-61 0 -103 -44 -103 -126v-287h-95v503h89v-74c26 45 71 78 127 78h26v-94z" />
    <glyph glyph-name="rcaron" unicode="&#x159;" horiz-adv-x="348" 
d="M202 559h-58l-116 131h98l47 -57l47 57h98zM327 413h-44c-61 0 -103 -44 -103 -126v-287h-95v503h89v-74c26 45 71 78 127 78h26v-94z" />
    <glyph glyph-name="rcommaaccent" unicode="&#x157;" horiz-adv-x="357" 
d="M327 413h-44c-61 0 -103 -44 -103 -126v-287h-95v503h89v-74c26 45 71 78 127 78h26v-94zM190 -50v-97c0 -45 -22 -69 -74 -94l-27 33c29 11 51 26 51 48v13h-54v97h104z" />
    <glyph glyph-name="s" unicode="s" horiz-adv-x="443" 
d="M219 517c87 0 138 -56 180 -102l-61 -56c-44 58 -88 74 -119 74s-59 -18 -59 -47c0 -31 13 -43 81 -78c55 -29 153 -73 153 -175c0 -80 -64 -147 -164 -147c-98 0 -167 70 -196 104l58 62c26 -30 80 -81 137 -81c40 0 73 22 73 62c0 44 -53 67 -116 102
c-80 42 -118 80 -118 149c0 68 60 133 151 133z" />
    <glyph glyph-name="sacute" unicode="&#x15b;" horiz-adv-x="443" 
d="M393 694l-131 -131h-87l88 131h130zM219 517c87 0 138 -56 180 -102l-61 -56c-44 58 -88 74 -119 74s-59 -18 -59 -47c0 -31 13 -43 81 -78c55 -29 153 -73 153 -175c0 -80 -64 -147 -164 -147c-98 0 -167 70 -196 104l58 62c26 -30 80 -81 137 -81c40 0 73 22 73 62
c0 44 -53 67 -116 102c-80 42 -118 80 -118 149c0 68 60 133 151 133z" />
    <glyph glyph-name="scaron" unicode="&#x161;" horiz-adv-x="443" 
d="M376 693l-116 -131h-58l-116 131h98l47 -57l47 57h98zM219 517c87 0 138 -56 180 -102l-61 -56c-44 58 -88 74 -119 74s-59 -18 -59 -47c0 -31 13 -43 81 -78c55 -29 153 -73 153 -175c0 -80 -64 -147 -164 -147c-98 0 -167 70 -196 104l58 62c26 -30 80 -81 137 -81
c40 0 73 22 73 62c0 44 -53 67 -116 102c-80 42 -118 80 -118 149c0 68 60 133 151 133z" />
    <glyph glyph-name="scedilla" unicode="&#x15f;" horiz-adv-x="443" 
d="M219 517c87 0 138 -56 180 -102l-61 -56c-44 58 -88 74 -119 74s-59 -18 -59 -47c0 -31 13 -43 81 -78c55 -29 153 -73 153 -175c0 -80 -64 -147 -164 -147c-98 0 -167 70 -196 104l58 62c26 -30 80 -81 137 -81c40 0 73 22 73 62c0 44 -53 67 -116 102
c-80 42 -118 80 -118 149c0 68 60 133 151 133zM208 -67l-72 -160l-104 44l108 116h68z" />
    <glyph glyph-name="scircumflex" unicode="&#x15d;" horiz-adv-x="443" 
d="M260 686l116 -131h-98l-47 57l-47 -57h-98l116 131h58zM219 517c87 0 138 -56 180 -102l-61 -56c-44 58 -88 74 -119 74s-59 -18 -59 -47c0 -31 13 -43 81 -78c55 -29 153 -73 153 -175c0 -80 -64 -147 -164 -147c-98 0 -167 70 -196 104l58 62c26 -30 80 -81 137 -81
c40 0 73 22 73 62c0 44 -53 67 -116 102c-80 42 -118 80 -118 149c0 68 60 133 151 133z" />
    <glyph glyph-name="scommaaccent" unicode="&#x219;" horiz-adv-x="492" 
d="M219 517c87 0 138 -56 180 -102l-61 -56c-44 58 -88 74 -119 74s-59 -18 -59 -47c0 -31 13 -43 81 -78c55 -29 153 -73 153 -175c0 -80 -64 -147 -164 -147c-98 0 -167 70 -196 104l58 62c26 -30 80 -81 137 -81c40 0 73 22 73 62c0 44 -53 67 -116 102
c-80 42 -118 80 -118 149c0 68 60 133 151 133zM318 -60v-97c0 -45 -22 -69 -74 -94l-27 33c29 11 51 26 51 48v13h-54v97h104z" />
    <glyph glyph-name="germandbls" unicode="&#xdf;" horiz-adv-x="652" 
d="M436 353c90 -27 173 -98 173 -198c0 -89 -66 -169 -168 -169c-93 0 -148 66 -171 105l52 65c28 -34 61 -74 114 -74c44 0 76 28 76 80c0 58 -40 104 -200 158v83c126 0 143 70 143 110c0 66 -46 114 -119 114c-71 0 -118 -46 -118 -145v-482h-95v319h-61v84h61v67
c0 149 63 244 211 244c173 0 218 -129 218 -194c0 -59 -37 -141 -116 -167z" />
    <glyph glyph-name="t" unicode="t" horiz-adv-x="335" 
d="M199 503h104v-81h-104v-254c0 -67 25 -84 71 -84h31v-84h-65c-86 0 -132 39 -132 160v262h-78v81h78v146h95v-146z" />
    <glyph glyph-name="tbar" unicode="&#x167;" horiz-adv-x="418" 
d="M201 422v-111h104v-82h-104v-61c0 -67 25 -84 71 -84h31v-84h-65c-86 0 -132 39 -132 160v69h-78v82h78v111h-78v81h78v146h95v-146h104v-81h-104z" />
    <glyph glyph-name="tcaron" unicode="&#x165;" horiz-adv-x="335" 
d="M422 726v-107c0 -55 -20 -90 -72 -119l-27 33c29 15 49 43 49 73v13h-54v107h104zM199 503h104v-81h-104v-254c0 -67 25 -84 71 -84h31v-84h-65c-86 0 -132 39 -132 160v262h-78v81h78v146h95v-146z" />
    <glyph glyph-name="tcedilla" unicode="&#x163;" horiz-adv-x="335" 
d="M199 503h104v-81h-104v-254c0 -67 25 -84 71 -84h31v-84h-65c-86 0 -132 39 -132 160v262h-78v81h78v146h95v-146zM189 -227l-104 44l108 116h68z" />
    <glyph glyph-name="uni021B" unicode="&#x21b;" horiz-adv-x="418" 
d="M199 503h104v-81h-104v-254c0 -67 25 -84 71 -84h31v-84h-65c-86 0 -132 39 -132 160v262h-78v81h78v146h95v-146zM306 -60v-97c0 -45 -22 -69 -74 -94l-27 33c29 11 51 26 51 48v13h-54v97h104z" />
    <glyph glyph-name="u" unicode="u" horiz-adv-x="562" 
d="M479 0h-89v58c-26 -40 -72 -72 -142 -72c-99 0 -175 64 -175 194v323h95v-300c0 -74 27 -130 100 -130c79 0 116 64 116 161v269h95v-503z" />
    <glyph glyph-name="uacute" unicode="&#xfa;" horiz-adv-x="562" 
d="M307 560h-87l88 131h130zM479 0h-89v58c-26 -40 -72 -72 -142 -72c-99 0 -175 64 -175 194v323h95v-300c0 -74 27 -130 100 -130c79 0 116 64 116 161v269h95v-503z" />
    <glyph glyph-name="ubreve" unicode="&#x16d;" horiz-adv-x="562" 
d="M338 700h72c0 -86 -44 -138 -134 -138c-84 0 -134 52 -134 138h72c0 -57 30 -72 62 -72c37 0 62 15 62 72zM479 0h-89v58c-26 -40 -72 -72 -142 -72c-99 0 -175 64 -175 194v323h95v-300c0 -74 27 -130 100 -130c79 0 116 64 116 161v269h95v-503z" />
    <glyph glyph-name="ucaron" unicode="&#x1d4;" horiz-adv-x="562" 
d="M305 559h-58l-116 131h98l47 -57l47 57h98zM479 0h-89v58c-26 -40 -72 -72 -142 -72c-99 0 -175 64 -175 194v323h95v-300c0 -74 27 -130 100 -130c79 0 116 64 116 161v269h95v-503z" />
    <glyph glyph-name="ucircumflex" unicode="&#xfb;" horiz-adv-x="562" 
d="M421 552h-98l-47 57l-47 -57h-98l116 131h58zM479 0h-89v58c-26 -40 -72 -72 -142 -72c-99 0 -175 64 -175 194v323h95v-300c0 -74 27 -130 100 -130c79 0 116 64 116 161v269h95v-503z" />
    <glyph glyph-name="udieresis" unicode="&#xfc;" horiz-adv-x="562" 
d="M221 582h-105v105h105v-105zM435 582h-105v105h105v-105zM479 0h-89v58c-26 -40 -72 -72 -142 -72c-99 0 -175 64 -175 194v323h95v-300c0 -74 27 -130 100 -130c79 0 116 64 116 161v269h95v-503z" />
    <glyph glyph-name="ugrave" unicode="&#xf9;" horiz-adv-x="562" 
d="M335 560h-87l-131 131h130zM479 0h-89v58c-26 -40 -72 -72 -142 -72c-99 0 -175 64 -175 194v323h95v-300c0 -74 27 -130 100 -130c79 0 116 64 116 161v269h95v-503z" />
    <glyph glyph-name="uhungarumlaut" unicode="&#x171;" horiz-adv-x="562" 
d="M190 560h-87l88 131h130zM421 560h-87l88 131h130zM479 0h-89v58c-26 -40 -72 -72 -142 -72c-99 0 -175 64 -175 194v323h95v-300c0 -74 27 -130 100 -130c79 0 116 64 116 161v269h95v-503z" />
    <glyph glyph-name="umacron" unicode="&#x16b;" horiz-adv-x="562" 
d="M440 580h-329v69h329v-69zM479 0h-89v58c-26 -40 -72 -72 -142 -72c-99 0 -175 64 -175 194v323h95v-300c0 -74 27 -130 100 -130c79 0 116 64 116 161v269h95v-503z" />
    <glyph glyph-name="uogonek" unicode="&#x173;" horiz-adv-x="562" 
d="M397 -90c8 -29 43 -32 87 -13v-73c-55 -24 -121 -21 -151 32c-26 46 -7 106 59 144h-2v58c-26 -40 -72 -72 -142 -72c-99 0 -175 64 -175 194v323h95v-300c0 -74 27 -130 100 -130c79 0 116 64 116 161v269h95v-503c-68 -33 -89 -63 -82 -90z" />
    <glyph glyph-name="uring" unicode="&#x16f;" horiz-adv-x="562" 
d="M275 717c50 0 88 -38 88 -87s-38 -87 -88 -87c-49 0 -87 38 -87 87s38 87 87 87zM275 672c-22 0 -42 -20 -42 -42c0 -24 20 -43 42 -43s42 19 42 43c0 22 -20 42 -42 42zM479 0h-89v58c-26 -40 -72 -72 -142 -72c-99 0 -175 64 -175 194v323h95v-300
c0 -74 27 -130 100 -130c79 0 116 64 116 161v269h95v-503z" />
    <glyph glyph-name="utilde" unicode="&#x169;" horiz-adv-x="562" 
d="M187 677c66 2 101 -43 162 -41c34 1 49 16 63 36l37 -35c-15 -37 -51 -70 -100 -71c-65 -3 -96 38 -154 36c-32 -1 -53 -16 -69 -37l-33 43c14 29 43 67 94 69zM479 0h-89v58c-26 -40 -72 -72 -142 -72c-99 0 -175 64 -175 194v323h95v-300c0 -74 27 -130 100 -130
c79 0 116 64 116 161v269h95v-503z" />
    <glyph glyph-name="v" unicode="v" horiz-adv-x="512" 
d="M304 0h-96l-197 503h95l150 -403l150 403h95z" />
    <glyph glyph-name="w" unicode="w" horiz-adv-x="763" 
d="M753 503l-211 -503h-96l-64 152l-64 -152h-96l-212 503h94l165 -391l65 153l-100 238h94l53 -126l54 126h94l-100 -239l64 -152l166 391h94z" />
    <glyph glyph-name="wacute" unicode="&#x1e83;" horiz-adv-x="763" 
d="M413 560h-87l88 131h130zM753 503l-211 -503h-96l-64 152l-64 -152h-96l-212 503h94l165 -391l65 153l-100 238h94l53 -126l54 126h94l-100 -239l64 -152l166 391h94z" />
    <glyph glyph-name="wcircumflex" unicode="&#x175;" horiz-adv-x="763" 
d="M335 552h-98l116 131h58l116 -131h-98l-47 57zM753 503l-211 -503h-96l-64 152l-64 -152h-96l-212 503h94l165 -391l65 153l-100 238h94l53 -126l54 126h94l-100 -239l64 -152l166 391h94z" />
    <glyph glyph-name="wdieresis" unicode="&#x1e85;" horiz-adv-x="763" 
d="M327 582h-105v105h105v-105zM541 582h-105v105h105v-105zM753 503l-211 -503h-96l-64 152l-64 -152h-96l-212 503h94l165 -391l65 153l-100 238h94l53 -126l54 126h94l-100 -239l64 -152l166 391h94z" />
    <glyph glyph-name="wgrave" unicode="&#x1e81;" horiz-adv-x="763" 
d="M354 560l-131 131h130l88 -131h-87zM753 503l-211 -503h-96l-64 152l-64 -152h-96l-212 503h94l165 -391l65 153l-100 238h94l53 -126l54 126h94l-100 -239l64 -152l166 391h94z" />
    <glyph glyph-name="x" unicode="x" horiz-adv-x="527" 
d="M406 0l-142 193l-143 -193h-106l196 264l-177 239h105l125 -168l124 168h105l-177 -239l196 -264h-106z" />
    <glyph glyph-name="y" unicode="y" horiz-adv-x="524" 
d="M515 503l-244 -608c-35 -86 -91 -119 -164 -119h-36v88h40c30 0 64 16 77 49l34 87l-211 503h100l157 -384l150 384h97z" />
    <glyph glyph-name="yacute" unicode="&#xfd;" horiz-adv-x="524" 
d="M300 560h-87l88 131h130zM515 503l-244 -608c-35 -86 -91 -119 -164 -119h-36v88h40c30 0 64 16 77 49l34 87l-211 503h100l157 -384l150 384h97z" />
    <glyph glyph-name="ycircumflex" unicode="&#x177;" horiz-adv-x="524" 
d="M222 552h-98l116 131h58l116 -131h-98l-47 57zM515 503l-244 -608c-35 -86 -91 -119 -164 -119h-36v88h40c30 0 64 16 77 49l34 87l-211 503h100l157 -384l150 384h97z" />
    <glyph glyph-name="ydieresis" unicode="&#xff;" horiz-adv-x="524" 
d="M214 582h-105v105h105v-105zM428 582h-105v105h105v-105zM515 503l-244 -608c-35 -86 -91 -119 -164 -119h-36v88h40c30 0 64 16 77 49l34 87l-211 503h100l157 -384l150 384h97z" />
    <glyph glyph-name="ygrave" unicode="&#x1ef3;" horiz-adv-x="524" 
d="M241 560l-131 131h130l88 -131h-87zM515 503l-244 -608c-35 -86 -91 -119 -164 -119h-36v88h40c30 0 64 16 77 49l34 87l-211 503h100l157 -384l150 384h97z" />
    <glyph glyph-name="z" unicode="z" horiz-adv-x="480" 
d="M414 428l-243 -340h257v-88h-366v82l238 333h-218v88h332v-75z" />
    <glyph glyph-name="zacute" unicode="&#x17a;" horiz-adv-x="480" 
d="M274 560h-87l88 131h130zM414 428l-243 -340h257v-88h-366v82l238 333h-218v88h332v-75z" />
    <glyph glyph-name="zcaron" unicode="&#x17e;" horiz-adv-x="480" 
d="M272 559h-58l-116 131h98l47 -57l47 57h98zM414 428l-243 -340h257v-88h-366v82l238 333h-218v88h332v-75z" />
    <glyph glyph-name="zdotaccent" unicode="&#x17c;" horiz-adv-x="480" 
d="M243 675c32 0 53 -21 53 -54c0 -31 -21 -52 -53 -52c-33 0 -54 21 -54 52c0 33 21 54 54 54zM414 428l-243 -340h257v-88h-366v82l238 333h-218v88h332v-75z" />
    <glyph glyph-name="a.ss01" 
d="M515 0h-90v52c-38 -43 -90 -66 -152 -66c-120 0 -219 110 -219 266c0 155 99 265 219 265c59 0 109 -21 147 -61v47h95v-503zM288 430c-84 0 -137 -68 -137 -178s53 -178 137 -178s137 68 137 178s-53 178 -137 178z" />
    <glyph glyph-name="aacute.ss01" 
d="M301 563h-87l88 131h130zM515 0h-90v52c-38 -43 -90 -66 -152 -66c-120 0 -219 110 -219 266c0 155 99 265 219 265c59 0 109 -21 147 -61v47h95v-503zM288 430c-84 0 -137 -68 -137 -178s53 -178 137 -178s137 68 137 178s-53 178 -137 178z" />
    <glyph glyph-name="abreve.ss01" 
d="M362 703h72c0 -86 -44 -138 -134 -138c-84 0 -134 52 -134 138h72c0 -57 30 -72 62 -72c37 0 62 15 62 72zM515 0h-90v52c-38 -43 -90 -66 -152 -66c-120 0 -219 110 -219 266c0 155 99 265 219 265c59 0 109 -21 147 -61v47h95v-503zM288 430c-84 0 -137 -68 -137 -178
s53 -178 137 -178s137 68 137 178s-53 178 -137 178z" />
    <glyph glyph-name="acaron.ss01" 
d="M329 562h-58l-116 131h98l47 -57l47 57h98zM515 0h-90v52c-38 -43 -90 -66 -152 -66c-120 0 -219 110 -219 266c0 155 99 265 219 265c59 0 109 -21 147 -61v47h95v-503zM288 430c-84 0 -137 -68 -137 -178s53 -178 137 -178s137 68 137 178s-53 178 -137 178z" />
    <glyph glyph-name="acircumflex.ss01" 
d="M445 555h-98l-47 57l-47 -57h-98l116 131h58zM515 0h-90v52c-38 -43 -90 -66 -152 -66c-120 0 -219 110 -219 266c0 155 99 265 219 265c59 0 109 -21 147 -61v47h95v-503zM288 430c-84 0 -137 -68 -137 -178s53 -178 137 -178s137 68 137 178s-53 178 -137 178z" />
    <glyph glyph-name="adieresis.ss01" 
d="M245 585h-105v105h105v-105zM459 585h-105v105h105v-105zM515 0h-90v52c-38 -43 -90 -66 -152 -66c-120 0 -219 110 -219 266c0 155 99 265 219 265c59 0 109 -21 147 -61v47h95v-503zM288 430c-84 0 -137 -68 -137 -178s53 -178 137 -178s137 68 137 178
s-53 178 -137 178z" />
    <glyph glyph-name="agrave.ss01" 
d="M359 563h-87l-131 131h130zM515 0h-90v52c-38 -43 -90 -66 -152 -66c-120 0 -219 110 -219 266c0 155 99 265 219 265c59 0 109 -21 147 -61v47h95v-503zM288 430c-84 0 -137 -68 -137 -178s53 -178 137 -178s137 68 137 178s-53 178 -137 178z" />
    <glyph glyph-name="amacron.ss01" 
d="M464 583h-329v69h329v-69zM515 0h-90v52c-38 -43 -90 -66 -152 -66c-120 0 -219 110 -219 266c0 155 99 265 219 265c59 0 109 -21 147 -61v47h95v-503zM288 430c-84 0 -137 -68 -137 -178s53 -178 137 -178s137 68 137 178s-53 178 -137 178z" />
    <glyph glyph-name="aogonek.ss01" 
d="M433 -90c8 -29 43 -32 87 -13v-73c-55 -24 -121 -21 -151 32c-26 46 -7 106 59 144h-3v52c-38 -43 -90 -66 -152 -66c-120 0 -219 110 -219 266c0 155 99 265 219 265c59 0 109 -21 147 -61v47h95v-503c-68 -33 -89 -63 -82 -90zM288 74c84 0 137 68 137 178
s-53 178 -137 178s-137 -68 -137 -178s53 -178 137 -178z" />
    <glyph glyph-name="aring.ss01" 
d="M299 720c50 0 88 -38 88 -87s-38 -87 -88 -87c-49 0 -87 38 -87 87s38 87 87 87zM299 675c-22 0 -42 -20 -42 -42c0 -24 20 -43 42 -43s42 19 42 43c0 22 -20 42 -42 42zM515 0h-90v52c-38 -43 -90 -66 -152 -66c-120 0 -219 110 -219 266c0 155 99 265 219 265
c59 0 109 -21 147 -61v47h95v-503zM288 430c-84 0 -137 -68 -137 -178s53 -178 137 -178s137 68 137 178s-53 178 -137 178z" />
    <glyph glyph-name="atilde.ss01" 
d="M224 680c66 2 101 -43 162 -41c34 1 49 16 63 36l37 -35c-15 -37 -51 -70 -100 -71c-65 -3 -96 38 -154 36c-32 -1 -53 -16 -69 -37l-33 43c14 29 43 67 94 69zM515 0h-90v52c-38 -43 -90 -66 -152 -66c-120 0 -219 110 -219 266c0 155 99 265 219 265
c59 0 109 -21 147 -61v47h95v-503zM288 430c-84 0 -137 -68 -137 -178s53 -178 137 -178s137 68 137 178s-53 178 -137 178z" />
    <glyph glyph-name="y.ss01" horiz-adv-x="524" 
d="M515 503l-291 -725h-89l87 223l-211 502h100l157 -384l150 384h97z" />
    <glyph glyph-name="yacute.ss01" horiz-adv-x="524" 
d="M300 560h-87l88 131h130zM515 503l-291 -725h-89l87 223l-211 502h100l157 -384l150 384h97z" />
    <glyph glyph-name="ycircumflex.ss01" horiz-adv-x="524" 
d="M222 552h-98l116 131h58l116 -131h-98l-47 57zM515 503l-291 -725h-89l87 223l-211 502h100l157 -384l150 384h97z" />
    <glyph glyph-name="ydieresis.ss01" horiz-adv-x="524" 
d="M214 582h-105v105h105v-105zM428 582h-105v105h105v-105zM515 503l-291 -725h-89l87 223l-211 502h100l157 -384l150 384h97z" />
    <glyph glyph-name="ygrave.ss01" horiz-adv-x="524" 
d="M241 560l-131 131h130l88 -131h-87zM515 503l-291 -725h-89l87 223l-211 502h100l157 -384l150 384h97z" />
    <glyph glyph-name="adieresis.ss02" horiz-adv-x="508" 
d="M150 704c37 0 62 -25 62 -63c0 -35 -25 -61 -62 -61s-63 26 -63 61c0 38 26 63 63 63zM358 704c36 0 62 -25 62 -63c0 -35 -26 -61 -62 -61c-38 0 -63 26 -63 61c0 38 25 63 63 63zM261 517c60 0 185 -22 185 -178v-339h-87v67c-34 -47 -94 -81 -169 -81
c-78 0 -146 37 -146 129c0 102 93 157 196 184l111 29v18c0 61 -46 86 -92 86c-51 0 -98 -31 -135 -75l-66 55c64 77 135 105 203 105zM351 247l-96 -25c-87 -23 -116 -66 -116 -100c0 -37 31 -51 62 -51c56 0 150 47 150 124v52z" />
    <glyph glyph-name="edieresis.ss02" horiz-adv-x="557" 
d="M177 701c37 0 62 -25 62 -63c0 -35 -25 -61 -62 -61s-63 26 -63 61c0 38 26 63 63 63zM385 701c36 0 62 -25 62 -63c0 -35 -26 -61 -62 -61c-38 0 -63 26 -63 61c0 38 25 63 63 63zM289 517c126 0 219 -88 219 -242v-62h-357c6 -74 56 -142 150 -142c49 0 98 19 142 55
l57 -65c-57 -46 -120 -75 -198 -75c-151 0 -249 108 -249 266c0 153 98 265 236 265zM289 432c-93 0 -135 -69 -138 -141h269c-3 86 -52 141 -131 141z" />
    <glyph glyph-name="i.ss02" horiz-adv-x="271" 
d="M136 714c36 0 65 -29 65 -65s-29 -66 -65 -66s-66 30 -66 66s30 65 66 65zM182 0h-95v503h95v-503z" />
    <glyph glyph-name="idieresis.ss02" horiz-adv-x="289" 
d="M31 701c37 0 62 -25 62 -63c0 -35 -25 -61 -62 -61s-63 26 -63 61c0 38 26 63 63 63zM239 701c36 0 62 -25 62 -63c0 -35 -26 -61 -62 -61c-38 0 -63 26 -63 61c0 38 25 63 63 63zM180 0h-95v503h95v-503z" />
    <glyph glyph-name="ij.ss02" horiz-adv-x="538" 
d="M136 714c36 0 65 -29 65 -65s-29 -66 -65 -66s-66 30 -66 66s30 65 66 65zM414 576c-38 0 -69 31 -69 69s31 69 69 69s69 -31 69 -69s-31 -69 -69 -69zM182 0h-95v503h95v-503zM462 503v-561c0 -119 -70 -166 -150 -166h-27v87h13c24 0 69 7 69 77v563h95z" />
    <glyph glyph-name="iogonek.ss02" horiz-adv-x="271" 
d="M136 583c-36 0 -66 30 -66 66s30 65 66 65s65 -29 65 -65s-29 -66 -65 -66zM106 -90c8 -29 43 -32 87 -13v-73c-55 -24 -121 -21 -151 32c-26 46 -7 106 59 144h-14v503h95v-503h6c-68 -33 -89 -63 -82 -90z" />
    <glyph glyph-name="j.ss02" horiz-adv-x="267" 
d="M143 576c-38 0 -69 31 -69 69s31 69 69 69s69 -31 69 -69s-31 -69 -69 -69zM191 503v-561c0 -119 -70 -166 -150 -166h-27v87h13c24 0 69 7 69 77v563h95z" />
    <glyph glyph-name="odieresis.ss02" horiz-adv-x="576" 
d="M184 701c37 0 62 -25 62 -63c0 -35 -25 -61 -62 -61s-63 26 -63 61c0 38 26 63 63 63zM392 701c36 0 62 -25 62 -63c0 -35 -26 -61 -62 -61c-38 0 -63 26 -63 61c0 38 25 63 63 63zM288 517c135 0 234 -109 234 -265s-99 -266 -234 -266s-234 110 -234 266
s99 265 234 265zM288 430c-84 0 -137 -68 -137 -178s53 -178 137 -178s137 68 137 178s-53 178 -137 178z" />
    <glyph glyph-name="udieresis.ss02" horiz-adv-x="562" 
d="M172 701c37 0 62 -25 62 -63c0 -35 -25 -61 -62 -61s-63 26 -63 61c0 38 26 63 63 63zM380 701c36 0 62 -25 62 -63c0 -35 -26 -61 -62 -61c-38 0 -63 26 -63 61c0 38 25 63 63 63zM479 0h-89v58c-26 -40 -72 -72 -142 -72c-99 0 -175 64 -175 194v323h95v-300
c0 -74 27 -130 100 -130c79 0 116 64 116 161v269h95v-503z" />
    <glyph glyph-name="wdieresis.ss02" horiz-adv-x="763" 
d="M278 577c-37 0 -63 26 -63 61c0 38 26 63 63 63s62 -25 62 -63c0 -35 -25 -61 -62 -61zM486 577c-38 0 -63 26 -63 61c0 38 25 63 63 63c36 0 62 -25 62 -63c0 -35 -26 -61 -62 -61zM753 503l-211 -503h-96l-64 152l-64 -152h-96l-212 503h94l165 -391l65 153l-100 238
h94l53 -126l54 126h94l-100 -239l64 -152l166 391h94z" />
    <glyph glyph-name="f_f_i.ss02" horiz-adv-x="832" 
d="M699 634c-36 0 -66 30 -66 66s30 65 66 65s65 -29 65 -65s-29 -66 -65 -66zM745 503v-503h-95v415h-180v-415h-95v415h-181v-415h-95v415h-68v88h68v93c0 106 59 163 135 163h57v-88h-38c-32 0 -59 -16 -59 -79v-89h181v93c0 106 59 163 135 163h57v-88h-38
c-32 0 -59 -16 -59 -79v-89h275z" />
    <glyph glyph-name="fi.ss02" horiz-adv-x="557" 
d="M424 634c-36 0 -66 30 -66 66s30 65 66 65s65 -29 65 -65s-29 -66 -65 -66zM470 0h-95v415h-181v-415h-95v415h-68v88h68v93c0 106 59 163 135 163h57v-88h-38c-32 0 -59 -16 -59 -79v-89h276v-503z" />
    <glyph glyph-name="Delta" unicode="&#x2206;" horiz-adv-x="759" 
d="M719 0h-679l279 700h120zM182 93h395l-198 495z" />
    <glyph glyph-name="Omega" unicode="&#x2126;" horiz-adv-x="802" 
d="M401 717c194 0 321 -151 321 -322c0 -150 -119 -247 -178 -274v-28h163v-93h-256v143c117 52 168 143 168 252c0 99 -59 227 -218 227s-218 -128 -218 -227c0 -109 50 -200 168 -252v-143h-256v93h163v28c-59 27 -178 124 -178 274c0 171 127 322 321 322z" />
    <glyph glyph-name="mu" unicode="&#xb5;" horiz-adv-x="572" 
d="M479 503v-503h-89v58c-26 -40 -72 -72 -142 -72c-29 0 -56 6 -80 17v-197h-95v697h95v-300c0 -74 27 -130 100 -130c79 0 116 64 116 161v269h95z" />
    <glyph glyph-name="pi" unicode="&#x3c0;" horiz-adv-x="639" 
d="M594 415h-80v-415h-95v415h-197v-415h-95v415h-82v88h549v-88z" />
    <glyph glyph-name="zero" unicode="0" horiz-adv-x="650" 
d="M325 714c175 -3 266 -171 266 -365c0 -196 -92 -360 -266 -363c-175 3 -266 170 -266 363c0 197 91 362 266 365zM325 619c-104 -3 -163 -110 -163 -270c0 -161 59 -266 163 -269c104 3 163 111 163 269c0 163 -59 267 -163 270z" />
    <glyph glyph-name="one" unicode="1" horiz-adv-x="426" 
d="M316 0h-99v572l-107 -97l-66 61l173 164h99v-700z" />
    <glyph glyph-name="two" unicode="2" horiz-adv-x="585" 
d="M291 714c126 0 219 -95 219 -208c0 -66 -33 -139 -93 -203l-197 -204h295v-99h-426v93l259 277c53 57 63 99 63 133c0 92 -74 116 -120 116c-60 0 -109 -45 -151 -102l-70 64c43 58 111 133 221 133z" />
    <glyph glyph-name="three" unicode="3" horiz-adv-x="588" 
d="M288 714c87 0 225 -50 225 -198c0 -88 -56 -135 -90 -153c45 -17 110 -71 110 -164c0 -134 -113 -213 -237 -213c-113 0 -197 64 -241 151l87 43c34 -60 91 -100 155 -100c67 0 134 44 134 119c0 84 -72 118 -134 118h-35v87h25c65 0 125 31 125 107
c0 65 -57 108 -124 108c-57 0 -109 -35 -134 -96l-92 37c42 110 143 154 226 154z" />
    <glyph glyph-name="four" unicode="4" horiz-adv-x="570" 
d="M436 263h103v-89h-103v-174h-99v174h-306v79l295 447h110v-437zM137 263h200v297z" />
    <glyph glyph-name="five" unicode="5" horiz-adv-x="594" 
d="M514 601h-287l-24 -170c19 13 58 33 118 33c125 0 218 -86 218 -226c0 -143 -96 -252 -241 -252c-116 0 -191 69 -233 150l86 43c30 -72 103 -99 153 -99c83 0 133 75 133 152c0 69 -40 148 -134 148c-68 0 -96 -34 -114 -59l-85 33l44 346h366v-99z" />
    <glyph glyph-name="six" unicode="6" horiz-adv-x="582" 
d="M428 681l-155 -236c11 2 22 3 34 3c99 0 222 -71 222 -232c0 -163 -127 -230 -239 -230c-106 0 -232 61 -232 222c0 64 20 117 60 179l221 337zM292 366c-64 0 -135 -42 -135 -143c0 -102 72 -143 135 -143c65 0 136 42 136 143c0 100 -70 143 -136 143z" />
    <glyph glyph-name="seven" unicode="7" horiz-adv-x="543" 
d="M483 611l-253 -611h-109l250 601h-320l-1 99h433v-89z" />
    <glyph glyph-name="eight" unicode="8" horiz-adv-x="595" 
d="M297 714c91 0 218 -53 218 -204c0 -63 -38 -119 -87 -145c51 -24 106 -77 106 -162c0 -153 -127 -217 -236 -217c-110 0 -237 65 -237 217c0 85 55 138 106 162c-50 26 -88 82 -88 145c0 151 127 204 218 204zM297 619c-62 0 -116 -35 -116 -104c0 -79 53 -115 116 -115
s116 36 116 115c0 69 -54 104 -116 104zM298 327c-60 0 -136 -30 -136 -126c0 -87 75 -121 136 -121s135 34 135 121c0 96 -75 126 -135 126z" />
    <glyph glyph-name="nine" unicode="9" horiz-adv-x="582" 
d="M292 714c106 0 232 -61 232 -222c0 -64 -20 -117 -60 -179l-221 -337l-89 43l155 236c-11 -2 -22 -3 -34 -3c-99 0 -222 71 -222 232c0 163 127 230 239 230zM290 620c-65 0 -136 -42 -136 -143c0 -100 70 -143 136 -143c64 0 135 42 135 143c0 102 -72 143 -135 143z
" />
    <glyph glyph-name="fraction" unicode="&#x2044;" 
d="M585 710l-433 -751l-73 41l433 751z" />
    <glyph glyph-name="asterisk" unicode="*" horiz-adv-x="497" 
d="M283 504l118 46l26 -72l-118 -40l82 -103l-61 -47l-81 114l-82 -114l-61 47l83 103l-119 40l26 72l118 -46l-4 122h77z" />
    <glyph glyph-name="asterism" unicode="&#x2042;" horiz-adv-x="941" 
d="M499 614l118 46l26 -72l-118 -40l82 -103l-61 -47l-81 114l-82 -114l-61 47l83 103l-119 40l26 72l118 -46l-4 122h77zM268 225l118 46l26 -72l-118 -40l82 -103l-61 -47l-81 114l-82 -114l-61 47l83 103l-119 40l26 72l118 -46l-4 122h77zM742 225l118 46l26 -72
l-118 -40l82 -103l-61 -47l-81 114l-82 -114l-61 47l83 103l-119 40l26 72l118 -46l-4 122h77z" />
    <glyph glyph-name="backslash" unicode="\" horiz-adv-x="530" 
d="M452 -77l-78 -27l-313 860l78 27z" />
    <glyph glyph-name="periodcentered" unicode="&#xb7;" horiz-adv-x="298" 
d="M149 367c28 0 49 -21 49 -49s-21 -49 -49 -49s-49 21 -49 49s21 49 49 49z" />
    <glyph glyph-name="bullet" unicode="&#x2022;" horiz-adv-x="426" 
d="M213 476c60 0 108 -49 108 -109s-48 -107 -108 -107s-108 47 -108 107s48 109 108 109z" />
    <glyph glyph-name="colon" unicode=":" horiz-adv-x="194" 
d="M149 396h-104v107h104v-107zM149 0h-104v107h104v-107z" />
    <glyph glyph-name="comma" unicode="," horiz-adv-x="214" 
d="M159 107v-107c0 -55 -20 -90 -72 -119l-27 33c29 15 49 43 49 73v13h-54v107h104z" />
    <glyph glyph-name="ellipsis" unicode="&#x2026;" horiz-adv-x="862" 
d="M229 0h-104v107h104v-107zM483 0h-104v107h104v-107zM737 0h-104v107h104v-107z" />
    <glyph glyph-name="exclam" unicode="!" horiz-adv-x="301" 
d="M195 214h-90l-5 478h101zM202 0h-104v107h104v-107z" />
    <glyph glyph-name="exclamdown" unicode="&#xa1;" horiz-adv-x="301" 
d="M98 585v107h104v-107h-104zM100 0l5 478h90l6 -478h-101z" />
    <glyph glyph-name="numbersign" unicode="#" horiz-adv-x="770" 
d="M523 500h172v-58h-178l-14 -162h167v-58h-173l-20 -222h-62l20 222h-136l-20 -222h-62l20 222h-157v58h163l14 162h-152v58h158l18 200h62l-18 -200h136l18 200h62zM319 442l-14 -162h136l14 162h-136z" />
    <glyph glyph-name="period" unicode="." horiz-adv-x="234" 
d="M169 0h-104v107h104v-107z" />
    <glyph glyph-name="question" unicode="?" horiz-adv-x="399" 
d="M183 713c111 0 169 -67 169 -156c0 -128 -158 -167 -158 -251c0 -28 16 -61 45 -93l-74 -36c-38 39 -64 80 -64 131c0 130 158 164 158 247c0 45 -38 71 -74 71c-32 0 -60 -17 -87 -40l-42 70c33 31 71 57 127 57zM229 0h-104v107h104v-107z" />
    <glyph glyph-name="questiondown" unicode="&#xbf;" horiz-adv-x="399" 
d="M176 479h104v-107h-104v107zM222 -234c-111 0 -169 67 -169 156c0 128 158 167 158 251c0 28 -16 61 -45 93l74 36c38 -39 64 -80 64 -131c0 -130 -158 -164 -158 -247c0 -45 38 -71 74 -71c32 0 60 17 87 40l42 -70c-33 -31 -71 -57 -127 -57z" />
    <glyph glyph-name="quotedbl" unicode="&#x22;" horiz-adv-x="413" 
d="M154 481h-62l-19 219h100zM322 481h-62l-19 219h99z" />
    <glyph glyph-name="quotesingle" unicode="'" horiz-adv-x="184" 
d="M101 481h-62l-19 219h99z" />
    <glyph glyph-name="semicolon" unicode=";" horiz-adv-x="194" 
d="M149 396h-104v107h104v-107zM149 107v-107c0 -55 -20 -90 -72 -119l-27 33c29 15 49 43 49 73v13h-54v107h104z" />
    <glyph glyph-name="slash" unicode="/" horiz-adv-x="513" 
d="M453 756l-314 -860l-79 27l314 860z" />
    <glyph glyph-name="underscore" unicode="_" horiz-adv-x="672" 
d="M637 -82h-602v65h602v-65z" />
    <glyph glyph-name="colon.ss02" horiz-adv-x="194" 
d="M97 379c-38 0 -69 31 -69 69s31 69 69 69s69 -31 69 -69s-31 -69 -69 -69zM97 -14c-38 0 -69 31 -69 69s31 69 69 69s69 -31 69 -69s-31 -69 -69 -69z" />
    <glyph glyph-name="comma.ss02" horiz-adv-x="238" 
d="M111 124c38 0 79 -26 79 -85c0 -72 -36 -141 -111 -165l-26 35c42 14 73 40 76 81c-6 -3 -12 -4 -18 -4c-38 0 -69 31 -69 69s31 69 69 69z" />
    <glyph glyph-name="ellipsis.ss02" horiz-adv-x="882" 
d="M197 -14c-38 0 -69 31 -69 69s31 69 69 69s69 -31 69 -69s-31 -69 -69 -69zM451 -14c-38 0 -69 31 -69 69s31 69 69 69s69 -31 69 -69s-31 -69 -69 -69zM705 -14c-38 0 -69 31 -69 69s31 69 69 69s69 -31 69 -69s-31 -69 -69 -69z" />
    <glyph glyph-name="exclam.ss02" horiz-adv-x="301" 
d="M195 214h-90l-5 478h101zM150 -14c-38 0 -69 31 -69 69s31 69 69 69s69 -31 69 -69s-31 -69 -69 -69z" />
    <glyph glyph-name="exclamdown.ss02" horiz-adv-x="301" 
d="M150 706c38 0 69 -31 69 -69s-31 -69 -69 -69s-69 31 -69 69s31 69 69 69zM100 0l5 478h90l6 -478h-101z" />
    <glyph glyph-name="period.ss02" horiz-adv-x="234" 
d="M117 -14c-38 0 -69 31 -69 69s31 69 69 69s69 -31 69 -69s-31 -69 -69 -69z" />
    <glyph glyph-name="question.ss02" horiz-adv-x="399" 
d="M239 204h-105c-20 31 -33 65 -33 104c0 130 158 164 158 247c0 45 -38 71 -74 71c-32 0 -60 -17 -87 -40l-42 70c33 31 71 57 127 57c111 0 169 -67 169 -156c0 -128 -158 -167 -158 -251c0 -31 16 -67 45 -102zM187 -14c-38 0 -69 31 -69 69s31 69 69 69s69 -31 69 -69
s-31 -69 -69 -69z" />
    <glyph glyph-name="questiondown.ss02" horiz-adv-x="399" 
d="M218 493c38 0 69 -31 69 -69s-31 -69 -69 -69s-69 31 -69 69s31 69 69 69zM166 275h105c20 -31 33 -65 33 -104c0 -130 -158 -164 -158 -247c0 -45 38 -71 74 -71c32 0 60 17 87 40l42 -70c-33 -31 -71 -57 -127 -57c-111 0 -169 67 -169 156c0 128 158 167 158 251
c0 31 -16 67 -45 102z" />
    <glyph glyph-name="semicolon.ss02" horiz-adv-x="238" 
d="M120 380c-38 0 -69 31 -69 69s31 69 69 69s69 -31 69 -69s-31 -69 -69 -69zM114 124c38 0 79 -26 79 -85c0 -72 -36 -141 -111 -165l-26 35c42 14 73 40 76 81c-6 -3 -12 -4 -18 -4c-38 0 -69 31 -69 69s31 69 69 69z" />
    <glyph glyph-name="braceleft" unicode="{" horiz-adv-x="424" 
d="M354 838v-56h-36c-53 0 -66 -41 -66 -92v-224c0 -47 -25 -80 -61 -101c36 -21 61 -53 61 -100v-224c0 -51 13 -92 66 -92h36v-56h-36c-88 0 -149 50 -149 139v235c0 53 -18 76 -79 76v45c57 0 79 23 79 76v235c0 89 61 139 149 139h36z" />
    <glyph glyph-name="braceright" unicode="}" horiz-adv-x="424" 
d="M70 838h36c88 0 149 -50 149 -139v-235c0 -53 22 -76 79 -76v-45c-61 0 -79 -23 -79 -76v-235c0 -89 -61 -139 -149 -139h-36v56h36c53 0 66 41 66 92v224c0 47 25 79 61 100c-36 21 -61 54 -61 101v224c0 51 -13 92 -66 92h-36v56z" />
    <glyph glyph-name="bracketleft" unicode="[" horiz-adv-x="448" 
d="M358 760h-145v-799h145v-70h-233v949h233v-80z" />
    <glyph glyph-name="bracketright" unicode="]" horiz-adv-x="448" 
d="M323 -109h-233v70h145v799h-145v80h233v-949z" />
    <glyph glyph-name="parenleft" unicode="(" horiz-adv-x="359" 
d="M245 796l59 -44c-109 -127 -168 -273 -168 -413c0 -137 56 -280 167 -410l-63 -41c-122 129 -180 288 -180 443c0 163 65 332 185 465z" />
    <glyph glyph-name="parenright" unicode=")" horiz-adv-x="360" 
d="M56 752l59 44c120 -133 185 -302 185 -465c0 -155 -58 -314 -180 -443l-63 41c111 130 167 273 167 410c0 140 -59 286 -168 413z" />
    <glyph glyph-name="emdash" unicode="&#x2014;" horiz-adv-x="712" 
d="M667 258h-622v80h622v-80z" />
    <glyph glyph-name="endash" unicode="&#x2013;" horiz-adv-x="564" 
d="M519 258h-474v80h474v-80z" />
    <glyph glyph-name="hyphen" unicode="-" horiz-adv-x="583" 
d="M493 258h-403v80h403v-80z" />
    <glyph glyph-name="guillemotleft" unicode="&#xab;" horiz-adv-x="618" 
d="M306 498l-122 -199l122 -199l-47 -36l-174 235l174 235zM533 498l-122 -199l122 -199l-47 -36l-174 235l174 235z" />
    <glyph glyph-name="guillemotright" unicode="&#xbb;" horiz-adv-x="618" 
d="M306 299l-174 -235l-47 36l122 199l-122 199l47 36zM533 299l-174 -235l-47 36l122 199l-122 199l47 36z" />
    <glyph glyph-name="guilsinglleft" unicode="&#x2039;" horiz-adv-x="391" 
d="M306 498l-122 -199l122 -199l-47 -36l-174 235l174 235z" />
    <glyph glyph-name="guilsinglright" unicode="&#x203a;" horiz-adv-x="391" 
d="M306 299l-174 -235l-47 36l122 199l-122 199l47 36z" />
    <glyph glyph-name="quotedblbase" unicode="&#x201e;" horiz-adv-x="397" 
d="M149 107v-107c0 -55 -20 -90 -72 -119l-27 33c29 15 49 43 49 73v13h-54v107h104zM352 107v-107c0 -55 -20 -90 -72 -119l-27 33c29 15 49 43 49 73v13h-54v107h104z" />
    <glyph glyph-name="quotedblleft" unicode="&#x201c;" horiz-adv-x="397" 
d="M45 489v107c0 55 20 90 72 119l27 -33c-29 -15 -49 -43 -49 -73v-13h54v-107h-104zM248 489v107c0 55 20 90 72 119l27 -33c-29 -15 -49 -43 -49 -73v-13h54v-107h-104z" />
    <glyph glyph-name="quotedblright" unicode="&#x201d;" horiz-adv-x="397" 
d="M149 700v-107c0 -55 -20 -90 -72 -119l-27 33c29 15 49 43 49 73v13h-54v107h104zM352 700v-107c0 -55 -20 -90 -72 -119l-27 33c29 15 49 43 49 73v13h-54v107h104z" />
    <glyph glyph-name="quoteleft" unicode="&#x2018;" horiz-adv-x="194" 
d="M45 489v107c0 55 20 90 72 119l27 -33c-29 -15 -49 -43 -49 -73v-13h54v-107h-104z" />
    <glyph glyph-name="quoteright" unicode="&#x2019;" horiz-adv-x="194" 
d="M149 700v-107c0 -55 -20 -90 -72 -119l-27 33c29 15 49 43 49 73v13h-54v107h104z" />
    <glyph glyph-name="quotesinglbase" unicode="&#x201a;" horiz-adv-x="214" 
d="M154 107v-107c0 -55 -20 -90 -72 -119l-27 33c29 15 49 43 49 73v13h-54v107h104z" />
    <glyph glyph-name="quotedblbase.ss02" horiz-adv-x="397" 
d="M91 124c38 0 79 -26 79 -85c0 -72 -36 -141 -111 -165l-26 35c42 14 73 40 76 81c-6 -3 -12 -4 -18 -4c-38 0 -69 31 -69 69s31 69 69 69zM294 124c38 0 79 -26 79 -85c0 -72 -36 -141 -111 -165l-26 35c42 14 73 40 76 81c-6 -3 -12 -4 -18 -4c-38 0 -69 31 -69 69
s31 69 69 69z" />
    <glyph glyph-name="quotedblleft.ss02" horiz-adv-x="397" 
d="M103 472c-38 0 -79 26 -79 85c0 72 36 141 111 165l26 -35c-42 -14 -73 -40 -76 -81c6 3 12 4 18 4c38 0 69 -31 69 -69s-31 -69 -69 -69zM306 472c-38 0 -79 26 -79 85c0 72 36 141 111 165l26 -35c-42 -14 -73 -40 -76 -81c6 3 12 4 18 4c38 0 69 -31 69 -69
s-31 -69 -69 -69z" />
    <glyph glyph-name="quotedblright.ss02" horiz-adv-x="397" 
d="M91 717c38 0 79 -26 79 -85c0 -72 -36 -141 -111 -165l-26 35c42 14 73 40 76 81c-6 -3 -12 -4 -18 -4c-38 0 -69 31 -69 69s31 69 69 69zM294 717c38 0 79 -26 79 -85c0 -72 -36 -141 -111 -165l-26 35c42 14 73 40 76 81c-6 -3 -12 -4 -18 -4c-38 0 -69 31 -69 69
s31 69 69 69z" />
    <glyph glyph-name="quoteleft.ss02" horiz-adv-x="194" 
d="M103 472c-38 0 -79 26 -79 85c0 72 36 141 111 165l26 -35c-42 -14 -73 -40 -76 -81c6 3 12 4 18 4c38 0 69 -31 69 -69s-31 -69 -69 -69z" />
    <glyph glyph-name="quoteright.ss02" horiz-adv-x="194" 
d="M91 717c38 0 79 -26 79 -85c0 -72 -36 -141 -111 -165l-26 35c42 14 73 40 76 81c-6 -3 -12 -4 -18 -4c-38 0 -69 31 -69 69s31 69 69 69z" />
    <glyph glyph-name="quotesinglbase.ss02" horiz-adv-x="214" 
d="M106 124c38 0 79 -26 79 -85c0 -72 -36 -141 -111 -165l-26 35c42 14 73 40 76 81c-6 -3 -12 -4 -18 -4c-38 0 -69 31 -69 69s31 69 69 69z" />
    <glyph glyph-name="space" unicode=" " horiz-adv-x="244" 
 />
    <glyph glyph-name="cent" unicode="&#xa2;" horiz-adv-x="538" 
d="M324 427v-351c42 8 75 31 99 71l73 -41c-36 -67 -94 -110 -172 -118v-72h-47v71c-135 8 -224 115 -224 265c0 151 91 259 224 265v66h47v-68c75 -11 137 -55 174 -131l-73 -40c-26 49 -60 74 -101 83zM150 252c0 -101 42 -169 127 -177v354c-82 -7 -127 -73 -127 -177z
" />
    <glyph glyph-name="currency" unicode="&#xa4;" horiz-adv-x="659" 
d="M579 517l-60 -61c23 -37 35 -79 35 -121c0 -43 -11 -85 -35 -122l60 -61l-67 -67l-60 60c-37 -25 -80 -36 -123 -36s-85 11 -122 35l-60 -59l-67 67l60 60c-25 37 -37 81 -37 124s12 85 36 122l-59 59l67 67l59 -59c37 24 79 36 123 36c42 0 85 -13 123 -37l60 60z
M329 476c-79 0 -141 -65 -141 -141c0 -78 64 -140 141 -140c79 0 141 66 141 141c0 74 -63 140 -141 140z" />
    <glyph glyph-name="dollar" unicode="$" horiz-adv-x="567" 
d="M517 187c0 -98 -69 -189 -194 -200v-71h-47v71c-143 10 -230 119 -245 153l67 64c20 -36 91 -110 178 -121v240l-80 43c-67 37 -117 87 -117 168c0 104 81 177 197 180v66h47v-69c96 -14 155 -78 193 -128l-67 -63c-28 36 -67 81 -126 95v-204l47 -24
c90 -46 147 -111 147 -200zM276 435v184c-62 -4 -95 -42 -95 -83c0 -44 37 -71 84 -95zM323 298v-215c63 9 92 57 92 103c0 49 -35 80 -92 112z" />
    <glyph glyph-name="Euro" unicode="&#x20ac;" horiz-adv-x="703" 
d="M543 161l74 -57c-35 -73 -103 -121 -197 -121c-120 0 -218 84 -254 229h-73l24 80h37c-1 15 -2 30 -2 46v23h-58l24 80h41c26 175 121 276 261 276c72 0 125 -25 169 -67l-36 -85c-38 41 -79 57 -133 57c-105 0 -144 -88 -157 -181h250l-24 -80h-233v-24
c0 -15 1 -30 2 -45h212l-24 -80h-174c23 -77 69 -135 148 -135c41 0 98 22 123 84z" />
    <glyph glyph-name="florin" unicode="&#x192;" horiz-adv-x="454" 
d="M359 671h-38c-32 0 -59 -16 -59 -79v-89h86v-88h-86v-474c0 -106 -59 -163 -135 -163h-57v88h38c32 0 59 16 59 79v470h-68v88h68v93c0 106 59 163 135 163h57v-88z" />
    <glyph glyph-name="sterling" unicode="&#xa3;" horiz-adv-x="598" 
d="M515 86l1 -86h-441l-1 83c90 80 99 146 73 223h-98v65h72c-23 54 -37 92 -37 133c0 99 75 213 217 213c118 0 193 -74 237 -122l-66 -62c-41 43 -87 89 -171 89c-69 0 -111 -50 -111 -118c0 -43 4 -75 28 -133h223v-65h-196c27 -85 2 -168 -50 -220h320z" />
    <glyph glyph-name="yen" unicode="&#xa5;" horiz-adv-x="618" 
d="M396 327h135v-65h-161l-26 -64h187v-65h-213l-54 -133h-100l53 133h-129v65h155l25 63l-1 1h-179v65h149l-176 373h104l149 -322l129 322h103z" />
    <glyph glyph-name="approxequal" unicode="&#x2248;" horiz-adv-x="715" 
d="M248 466c77 0 119 -62 188 -62c28 0 63 2 103 44l50 -39c-25 -48 -88 -91 -151 -91c-77 0 -125 59 -190 59c-29 0 -65 -2 -99 -39l-44 45c23 39 78 83 143 83zM252 257c77 0 119 -62 188 -62c28 0 63 2 103 44l50 -39c-25 -48 -88 -91 -151 -91c-77 0 -125 59 -190 59
c-29 0 -65 -2 -99 -39l-44 45c23 39 78 83 143 83z" />
    <glyph glyph-name="asciitilde" unicode="~" horiz-adv-x="691" 
d="M238 433c77 0 119 -62 188 -62c28 0 63 2 103 44l50 -39c-25 -48 -88 -91 -151 -91c-77 0 -125 59 -190 59c-29 0 -65 -2 -99 -39l-44 45c23 39 78 83 143 83z" />
    <glyph glyph-name="divide" unicode="&#xf7;" horiz-adv-x="627" 
d="M366 450h-104v111h104v-111zM587 261h-546v80h546v-80zM366 40h-104v111h104v-111z" />
    <glyph glyph-name="equal" unicode="=" horiz-adv-x="723" 
d="M643 350h-563v75h563v-75zM643 153h-563v75h563v-75z" />
    <glyph glyph-name="greater" unicode="&#x3e;" horiz-adv-x="601" 
d="M546 370v-78l-491 -214v89l381 164l-381 164v89z" />
    <glyph glyph-name="greaterequal" unicode="&#x2265;" horiz-adv-x="723" 
d="M570 382l-491 -214v89l381 164l-381 164v89l491 -214v-78zM571 80v-80h-491v80h491z" />
    <glyph glyph-name="infinity" unicode="&#x221e;" horiz-adv-x="859" 
d="M618 465c108 0 186 -79 186 -175c0 -98 -78 -176 -186 -176c-75 0 -141 51 -189 105c-47 -54 -113 -105 -188 -105c-108 0 -186 78 -186 176c0 96 78 175 186 175c78 0 140 -49 188 -106c49 57 111 106 189 106zM241 198c60 0 107 49 136 92c-29 42 -76 90 -136 90
c-62 0 -102 -40 -102 -90c0 -52 40 -92 102 -92zM618 198c62 0 102 40 102 92c0 50 -40 90 -102 90c-60 0 -107 -48 -136 -90c29 -43 76 -92 136 -92z" />
    <glyph glyph-name="integral" unicode="&#x222b;" horiz-adv-x="459" 
d="M355 671h-38c-32 0 -59 -16 -59 -79v-651c0 -106 -59 -163 -135 -163h-57v88h38c32 0 59 16 59 79v651c0 106 59 163 135 163h57v-88z" />
    <glyph glyph-name="less" unicode="&#x3c;" horiz-adv-x="601" 
d="M546 495l-381 -164l381 -164v-89l-491 214v78l491 214v-89z" />
    <glyph glyph-name="lessequal" unicode="&#x2264;" horiz-adv-x="602" 
d="M547 585l-381 -164l381 -164v-89l-491 214v78l491 214v-89zM55 80h491v-80h-491v80z" />
    <glyph glyph-name="logicalnot" unicode="&#xac;" horiz-adv-x="723" 
d="M623 173h-80v195h-443v80h523v-275z" />
    <glyph glyph-name="minus" unicode="&#x2212;" horiz-adv-x="683" 
d="M616 249h-543v80h543v-80z" />
    <glyph glyph-name="multiply" unicode="&#xd7;" horiz-adv-x="583" 
d="M475 416l-127 -127l127 -127l-57 -57l-127 127l-126 -127l-57 57l126 127l-126 127l57 57l126 -127l127 127z" />
    <glyph glyph-name="notequal" unicode="&#x2260;" horiz-adv-x="723" 
d="M452 350l-86 -122h277v-75h-329l-96 -137l-71 47l63 90h-130v75h183l85 122h-268v75h320l95 135l70 -48l-61 -87h139v-75h-191z" />
    <glyph glyph-name="partialdiff" unicode="&#x2202;" horiz-adv-x="604" 
d="M309 717c188 0 238 -179 238 -349c0 -278 -133 -382 -273 -382c-127 0 -214 85 -214 239c0 190 133 292 258 292c66 0 106 -28 135 -71c-8 144 -83 181 -159 181c-66 0 -109 -28 -155 -66l-60 57c63 56 138 99 230 99zM322 430c-72 0 -157 -62 -157 -199
c0 -89 36 -150 109 -150c83 0 159 78 159 196c0 73 -29 153 -111 153z" />
    <glyph glyph-name="percent" unicode="%" horiz-adv-x="945" 
d="M729 710l-433 -751l-73 41l433 751zM250 714c95 0 170 -75 170 -171c0 -95 -75 -170 -170 -170s-170 75 -170 170c0 96 75 171 170 171zM250 627c-45 0 -82 -37 -82 -84c0 -45 37 -82 82 -82c47 0 84 37 84 82c0 47 -37 84 -84 84zM694 326c96 0 171 -75 171 -170
s-75 -170 -171 -170c-95 0 -170 75 -170 170s75 170 170 170zM694 239c-46 0 -83 -37 -83 -83c0 -47 37 -84 83 -84s83 37 83 84c0 46 -37 83 -83 83z" />
    <glyph glyph-name="perthousand" unicode="&#x2030;" horiz-adv-x="1173" 
d="M729 710l-433 -751l-73 41l433 751zM420 538c0 -95 -75 -170 -170 -170s-170 75 -170 170c0 96 75 171 170 171s170 -75 170 -171zM168 538c0 -45 37 -82 82 -82c47 0 84 37 84 82c0 47 -37 84 -84 84c-45 0 -82 -37 -82 -84zM947 322c96 0 171 -75 171 -170
s-75 -170 -171 -170c-50 0 -95 21 -126 55c-31 -34 -76 -55 -127 -55c-95 0 -170 75 -170 170s75 170 170 170c51 0 96 -21 127 -55c31 34 76 55 126 55zM694 68c46 0 83 37 83 84c0 46 -37 83 -83 83s-83 -37 -83 -83c0 -47 37 -84 83 -84zM947 68c46 0 83 37 83 84
c0 46 -37 83 -83 83c-42 0 -77 -31 -82 -72v-11v-11c5 -42 40 -73 82 -73z" />
    <glyph glyph-name="plus" unicode="+" horiz-adv-x="643" 
d="M361 343h212v-80h-212v-212h-80v212h-211v80h211v212h80v-212z" />
    <glyph glyph-name="plusminus" unicode="&#xb1;" horiz-adv-x="740" 
d="M418 462h212v-80h-212v-212h-80v212h-211v80h211v212h80v-212zM630 0h-503v80h503v-80z" />
    <glyph glyph-name="product" unicode="&#x220f;" horiz-adv-x="621" 
d="M516 0h-95v611h-221v-611h-95v700h411v-700z" />
    <glyph glyph-name="radical" unicode="&#x221a;" horiz-adv-x="768" 
d="M666 647l-227 -647h-87l-126 277h-151v81h214l101 -225l191 543z" />
    <glyph glyph-name="summation" unicode="&#x2211;" horiz-adv-x="592" 
d="M514 607h-292l128 -233v-46l-129 -235h293v-93h-417v72l156 278l-156 281v69h417v-93z" />
    <glyph glyph-name="arrowup" unicode="&#x2191;" horiz-adv-x="585" 
d="M510 496l-56 -56l-122 127l-1 -567h-78v568l-122 -128l-56 56l217 218z" />
    <glyph glyph-name="uni2197" unicode="&#x2197;" horiz-adv-x="683" 
d="M607 392h-79l5 178l-403 -403l-55 55l401 402l-177 -4v80h309z" />
    <glyph glyph-name="arrowright" unicode="&#x2192;" horiz-adv-x="864" 
d="M789 288l-218 -218l-56 56l127 122l-567 1v78h568l-128 122l56 56z" />
    <glyph glyph-name="uni2198" unicode="&#x2198;" horiz-adv-x="683" 
d="M533 130l-5 178h79l1 -308h-309v80l177 -4l-401 402l55 55z" />
    <glyph glyph-name="arrowdown" unicode="&#x2193;" horiz-adv-x="585" 
d="M75 204l56 56l122 -128v568h78l1 -567l122 127l56 -56l-218 -218z" />
    <glyph glyph-name="uni2199" unicode="&#x2199;" horiz-adv-x="683" 
d="M608 478l-401 -402l177 4v-80h-309l1 308h79l-5 -178l403 403z" />
    <glyph glyph-name="arrowleft" unicode="&#x2190;" horiz-adv-x="864" 
d="M349 449l-128 -122h568v-78l-567 -1l127 -122l-56 -56l-218 218l218 217z" />
    <glyph glyph-name="uni2196" unicode="&#x2196;" horiz-adv-x="683" 
d="M384 620l-177 4l401 -402l-55 -55l-403 403l5 -178h-79l-1 308h309v-80z" />
    <glyph glyph-name="uni2194" unicode="&#x2194;" horiz-adv-x="878" 
d="M585 133l-56 56l127 122l-435 1l128 -123l-56 -56l-218 218l218 217l56 -56l-128 -122h436l-128 122l56 56l218 -217z" />
    <glyph glyph-name="arrowupdn" unicode="&#x2195;" horiz-adv-x="585" 
d="M510 496l-56 -56l-122 127l-1 -435l123 128l56 -56l-218 -218l-217 218l56 56l122 -128v436l-122 -128l-56 56l217 218z" />
    <glyph glyph-name="lozenge" unicode="&#x25ca;" horiz-adv-x="593" 
d="M538 351l-210 -351h-64l-209 351l207 348h68zM155 351l141 -235l142 235l-142 236z" />
    <glyph glyph-name="uniF8FF" unicode="&#xf8ff;" horiz-adv-x="884" 
d="M793 0h-702v700h702v-700zM156 634v-568h572v568h-572zM361 507c83 0 145 -65 145 -155s-62 -156 -145 -156c-82 0 -144 66 -144 156s62 155 144 155zM361 450c-50 0 -79 -38 -79 -98c0 -59 29 -97 79 -97c51 0 80 38 80 97c0 60 -29 98 -80 98zM675 371h-21
c-26 0 -45 -20 -45 -55v-111h-58v224h55v-31c12 20 32 33 56 33h13v-60z" />
    <glyph glyph-name="bar" unicode="|" horiz-adv-x="277" 
d="M180 -139h-83v898h83v-898z" />
    <glyph glyph-name="brokenbar" unicode="&#xa6;" horiz-adv-x="277" 
d="M180 407h-83v352h83v-352zM180 -139h-83v352h83v-352z" />
    <glyph glyph-name="at" unicode="@" horiz-adv-x="1094" 
d="M509 714h181c187 0 306 -145 306 -339v-228c0 -136 -95 -184 -179 -184s-135 40 -165 89c-38 -43 -90 -66 -152 -66c-120 0 -219 110 -219 266c0 155 99 265 219 265c59 0 109 -21 147 -61l1 47h95v-355c0 -68 40 -93 78 -93c46 0 77 26 77 131v189
c0 157 -95 246 -241 246h-150c-220 0 -344 -166 -344 -371c0 -187 133 -373 341 -373c62 0 117 17 161 44l77 -58c-69 -47 -141 -72 -236 -72c-252 0 -445 201 -445 459c0 256 183 463 448 464zM515 430c-89 0 -137 -69 -137 -178s48 -178 137 -178c87 0 137 68 137 178
s-49 178 -137 178z" />
    <glyph glyph-name="ampersand" unicode="&#x26;" horiz-adv-x="721" 
d="M597 0l-73 71c-54 -50 -124 -86 -214 -86c-143 0 -212 92 -212 180c0 92 75 150 139 188c-60 62 -96 111 -96 175c0 63 36 181 194 181c153 0 187 -110 187 -177c0 -86 -56 -139 -138 -192l135 -136c25 37 46 79 64 124l75 -34c-13 -45 -38 -102 -75 -155l138 -139h-124z
M335 621c-48 0 -90 -34 -90 -91c0 -47 28 -79 78 -129c77 46 100 74 100 125c0 75 -51 95 -88 95zM320 78c53 0 99 22 139 57l-158 155c-49 -32 -95 -70 -95 -120c0 -44 35 -92 114 -92z" />
    <glyph glyph-name="paragraph" unicode="&#xb6;" horiz-adv-x="832" 
d="M732 617h-67v-839h-97v839h-142v-839h-97v503c-105 0 -191 99 -191 210c0 110 86 209 191 209h403v-83z" />
    <glyph glyph-name="copyright" unicode="&#xa9;" horiz-adv-x="837" 
d="M419 714c195 0 354 -163 354 -364s-159 -364 -354 -364s-354 163 -354 364s159 364 354 364zM419 638c-150 0 -274 -128 -274 -288s124 -288 274 -288s274 128 274 288s-124 288 -274 288zM419 563c77 0 138 -41 173 -118l-73 -40c-26 53 -54 73 -97 73
c-71 0 -104 -47 -104 -129c0 -83 33 -130 103 -130c45 0 73 19 95 63l73 -41c-30 -65 -89 -107 -168 -107c-116 0 -195 91 -195 215s79 214 193 214z" />
    <glyph glyph-name="registered" unicode="&#xae;" horiz-adv-x="838" 
d="M419 714c195 0 354 -163 354 -364s-159 -364 -354 -364s-354 163 -354 364s159 364 354 364zM419 62c150 0 274 128 274 288s-124 288 -274 288s-274 -128 -274 -288s124 -288 274 -288zM571 431c0 -40 -19 -113 -112 -132l117 -169h-98l-109 162v-162h-84v440h125
c136 0 161 -88 161 -139zM369 376h41c74 0 76 39 76 55c0 26 -2 58 -76 58h-41v-113z" />
    <glyph glyph-name="section" unicode="&#xa7;" horiz-adv-x="655" 
d="M353 717c106 0 165 -66 203 -115l-59 -55c-29 37 -67 86 -144 86c-57 0 -90 -34 -90 -77c0 -49 54 -80 112 -105c78 -40 194 -88 194 -213c0 -78 -43 -134 -118 -156c39 -32 67 -75 67 -140c0 -91 -71 -175 -191 -175c-149 0 -221 104 -235 135l59 56
c19 -34 90 -109 176 -109c69 0 102 47 102 93c0 54 -42 89 -142 133c-93 45 -144 94 -144 185c0 62 51 125 128 145c-64 37 -98 80 -98 151c0 98 74 161 180 161zM347 367c-53 -8 -114 -39 -114 -107c0 -54 54 -88 112 -115l33 -16c69 0 102 60 102 109
c0 52 -51 88 -133 129z" />
    <glyph glyph-name="trademark" unicode="&#x2122;" horiz-adv-x="643" 
d="M228 641h-74v-291h-70v291h-74v59h218v-59zM633 350h-70v269l-70 -165h-66l-69 165v-269h-70v350h105l67 -164l63 164h110v-350z" />
    <glyph glyph-name="degree" unicode="&#xb0;" horiz-adv-x="350" 
d="M175 714c-91 0 -165 -74 -165 -165s74 -166 165 -166s165 75 165 166s-74 165 -165 165zM175 639c48 0 90 -42 90 -90c0 -49 -42 -91 -90 -91s-90 42 -90 91c0 48 42 90 90 90z" />
    <glyph glyph-name="uni2113" unicode="&#x2113;" horiz-adv-x="421" 
d="M220 72c18 0 35 9 55 26l52 -56c-36 -42 -72 -56 -116 -56c-95 0 -126 66 -126 152v106c-15 -7 -29 -13 -44 -18l-24 82c24 8 47 17 68 27v282c0 99 61 150 147 150c55 0 134 -22 134 -169c0 -130 -81 -232 -186 -302v-168c0 -35 11 -56 40 -56zM180 616v-217
c62 58 93 131 93 207c0 56 -17 76 -47 76c-28 0 -46 -20 -46 -66z" />
    <glyph glyph-name="uni2116" unicode="&#x2116;" horiz-adv-x="1090" 
d="M880 714c-91 0 -165 -74 -165 -165s74 -166 165 -166s165 75 165 166s-74 165 -165 165zM613 0h-107l-316 531v-531h-99v700h104l319 -527v527h99v-700zM880 634c46 0 85 -39 85 -85c0 -47 -39 -86 -85 -86s-85 39 -85 86c0 46 39 85 85 85zM1041 225h-322v76h322v-76z
" />
    <glyph glyph-name="asciicircum" unicode="^" horiz-adv-x="642" 
d="M588 289h-99l-170 333l-180 -333h-90l209 411h121z" />
    <glyph glyph-name="dagger" unicode="&#x2020;" horiz-adv-x="663" 
d="M373 591h210v-80h-210v-674h-83v674h-210v80h210v168h83v-168z" />
    <glyph glyph-name="daggerdbl" unicode="&#x2021;" horiz-adv-x="663" 
d="M373 591h210v-80h-210v-335h210v-80h-210v-259h-83v259h-210v80h210v335h-210v80h210v168h83v-168z" />
    <glyph glyph-name="acute" unicode="&#xb4;" horiz-adv-x="282" 
d="M161 560h-87l88 131h130z" />
    <glyph glyph-name="breve" unicode="&#x2d8;" horiz-adv-x="426" 
d="M275 700h72c0 -86 -44 -138 -134 -138c-84 0 -134 52 -134 138h72c0 -57 30 -72 62 -72c37 0 62 15 62 72z" />
    <glyph glyph-name="caron" unicode="&#x2c7;" horiz-adv-x="464" 
d="M261 559h-58l-116 131h98l47 -57l47 57h98z" />
    <glyph glyph-name="cedilla" unicode="&#xb8;" horiz-adv-x="341" 
d="M149 -227l-104 44l108 116h68z" />
    <glyph glyph-name="circumflex" unicode="&#x2c6;" horiz-adv-x="490" 
d="M377 552h-98l-47 57l-47 -57h-98l116 131h58z" />
    <glyph glyph-name="dieresis" unicode="&#xa8;" horiz-adv-x="491" 
d="M191 582h-105v105h105v-105zM405 582h-105v105h105v-105z" />
    <glyph glyph-name="dotaccent" unicode="&#x2d9;" horiz-adv-x="307" 
d="M154 706c32 0 53 -21 53 -54c0 -31 -21 -52 -53 -52c-33 0 -54 21 -54 52c0 33 21 54 54 54z" />
    <glyph glyph-name="grave" unicode="`" horiz-adv-x="358" 
d="M288 560h-87l-131 131h130z" />
    <glyph glyph-name="hungarumlaut" unicode="&#x2dd;" horiz-adv-x="589" 
d="M177 560h-87l88 131h130zM408 560h-87l88 131h130z" />
    <glyph glyph-name="macron" unicode="&#xaf;" horiz-adv-x="477" 
d="M405 580h-329v69h329v-69z" />
    <glyph glyph-name="ogonek" unicode="&#x2db;" horiz-adv-x="273" 
d="M134 0h87c-68 -33 -89 -63 -82 -90c8 -29 43 -32 87 -13v-73c-55 -24 -121 -21 -151 32c-26 46 -7 106 59 144z" />
    <glyph glyph-name="ring" unicode="&#x2da;" horiz-adv-x="335" 
d="M167 717c50 0 88 -38 88 -87s-38 -87 -88 -87c-49 0 -87 38 -87 87s38 87 87 87zM167 672c-22 0 -42 -20 -42 -42c0 -24 20 -43 42 -43s42 19 42 43c0 22 -20 42 -42 42z" />
    <glyph glyph-name="tilde" unicode="&#x2dc;" horiz-adv-x="532" 
d="M189 677c66 2 101 -43 162 -41c34 1 49 16 63 36l37 -35c-15 -37 -51 -70 -100 -71c-65 -3 -96 38 -154 36c-32 -1 -53 -16 -69 -37l-33 43c14 29 43 67 94 69z" />
    <glyph glyph-name="dieresis.ss02" horiz-adv-x="491" 
d="M142 701c37 0 62 -25 62 -63c0 -35 -25 -61 -62 -61s-63 26 -63 61c0 38 26 63 63 63zM350 701c36 0 62 -25 62 -63c0 -35 -26 -61 -62 -61c-38 0 -63 26 -63 61c0 38 25 63 63 63z" />
    <glyph glyph-name="ydieresis2.ss02" horiz-adv-x="524" 
d="M165 577c-37 0 -63 26 -63 61c0 38 26 63 63 63s62 -25 62 -63c0 -35 -25 -61 -62 -61zM373 577c-38 0 -63 26 -63 61c0 38 25 63 63 63c36 0 62 -25 62 -63c0 -35 -26 -61 -62 -61zM515 503l-291 -725h-89l87 223l-211 502h100l157 -384l150 384h97z" />
    <glyph glyph-name="adieresis2.ss02" 
d="M196 704c37 0 62 -25 62 -63c0 -35 -25 -61 -62 -61s-63 26 -63 61c0 38 26 63 63 63zM404 704c36 0 62 -25 62 -63c0 -35 -26 -61 -62 -61c-38 0 -63 26 -63 61c0 38 25 63 63 63zM515 0h-90v52c-38 -43 -90 -66 -152 -66c-120 0 -219 110 -219 266
c0 155 99 265 219 265c59 0 109 -21 147 -61v47h95v-503zM288 430c-84 0 -137 -68 -137 -178s53 -178 137 -178s137 68 137 178s-53 178 -137 178z" />
    </font>
</defs>
</svg>
